<?xml version="1.0" standalone="no"?>
<!DOCTYPE svg PUBLIC "-//W3C//DTD SVG 20010904//EN"
 "http://www.w3.org/TR/2001/REC-SVG-20010904/DTD/svg10.dtd">
<svg version="1.0" xmlns="http://www.w3.org/2000/svg"
 width="300.000000pt" height="217.000000pt" viewBox="0 0 300.000000 217.000000"
 preserveAspectRatio="xMidYMid meet">
<metadata>
Created by potrace 1.10, written by Peter Selinger 2001-2011
</metadata>
<g transform="translate(0.000000,217.000000) scale(0.100000,-0.100000)"
fill="#000000" stroke="none">
<path d="M2626 2104 c-4 -15 -15 -34 -24 -41 -16 -12 -16 -12 1 -13 25 0 21
-19 -8 -32 -19 -9 -29 -8 -50 6 -22 15 -28 15 -52 3 l-27 -14 24 -13 c21 -11
22 -10 16 6 -6 18 -5 18 9 0 11 -14 15 -16 15 -5 1 10 4 10 14 -4 9 -11 17
-14 20 -8 11 18 34 1 29 -20 -4 -15 -12 -19 -25 -15 -18 4 -20 0 -16 -30 3
-29 1 -34 -17 -33 -11 0 -14 3 -7 6 6 2 12 9 12 14 0 6 -4 7 -10 4 -5 -3 -18
-1 -27 4 -16 9 -14 10 10 11 39 0 35 28 -5 33 -29 4 -28 4 5 3 20 -1 37 2 37
6 0 10 -13 11 -110 9 -41 -1 -95 5 -120 13 -25 8 -41 15 -36 15 4 1 -2 10 -15
20 -19 16 -22 22 -11 32 15 16 16 33 1 23 -6 -3 -15 0 -20 7 -6 9 -9 10 -9 2
0 -6 -7 -18 -15 -27 -13 -13 -14 -19 -3 -36 11 -18 10 -23 -7 -36 -26 -20 -64
-10 -94 23 -32 37 -61 41 -61 8 0 -37 -29 -46 -142 -43 -96 3 -103 4 -104 24
-1 11 5 21 12 21 10 0 11 -4 3 -14 -9 -10 -7 -13 9 -13 12 0 19 6 18 16 0 11
7 18 21 19 12 1 20 -2 17 -7 -3 -4 0 -8 5 -8 6 0 11 7 11 15 0 7 7 18 17 23
12 7 7 11 -25 14 -34 3 -42 0 -42 -13 0 -12 -6 -16 -19 -12 -10 3 -22 0 -25
-6 -10 -16 -37 -14 -50 4 -9 13 -14 10 -27 -14 l-17 -29 34 0 c19 0 31 4 28 9
-3 5 0 9 6 9 6 0 10 -8 8 -17 -3 -15 -16 -18 -79 -21 -70 -3 -79 -1 -108 23
-29 25 -42 65 -21 65 6 0 10 -7 10 -16 0 -12 6 -15 23 -10 12 3 29 6 37 6 11
1 9 6 -7 19 -13 11 -23 25 -23 33 -1 8 -5 7 -15 -6 -8 -11 -21 -16 -30 -13 -9
4 -15 1 -15 -7 0 -7 -7 -19 -16 -27 -13 -10 -17 -10 -26 2 -7 11 -11 11 -15 2
-7 -19 -21 -16 -28 7 -4 11 -11 18 -16 15 -5 -4 -9 1 -9 9 0 21 -12 25 -38 11
-20 -11 -21 -14 -9 -26 7 -8 16 -21 18 -28 4 -11 8 -10 21 3 27 26 30 18 8
-24 -20 -39 -22 -40 -71 -40 -28 0 -59 5 -70 11 -15 7 -24 7 -34 -1 -22 -19
-70 -8 -70 15 0 11 8 21 17 23 12 2 16 -1 12 -11 -6 -17 11 -31 26 -22 8 5 7
12 -2 22 -11 14 -7 15 30 12 23 -3 42 -2 42 2 0 4 9 9 20 12 11 3 20 10 20 16
0 11 -61 3 -70 -9 -8 -11 -93 -10 -106 1 -8 7 -14 6 -19 -1 -3 -6 -11 -8 -16
-5 -5 4 -9 -5 -9 -18 0 -20 4 -24 20 -20 11 3 20 0 20 -6 0 -6 -3 -12 -7 -12
-45 -7 -63 -6 -63 2 0 6 6 7 13 3 6 -4 5 1 -4 12 -9 10 -19 28 -23 38 -6 18
-9 16 -28 -15 -12 -19 -21 -37 -21 -40 4 -13 -93 -9 -112 5 -20 15 -20 15 3
16 20 0 21 2 10 23 -7 12 -14 23 -15 25 -1 2 -13 -4 -27 -13 -25 -16 -25 -18
-9 -31 16 -12 16 -15 3 -24 -22 -14 -57 -12 -85 6 -16 10 -34 14 -54 9 -26 -6
-29 -4 -24 15 4 14 11 19 23 15 13 -4 17 1 18 26 1 25 -2 29 -16 24 -9 -4 -25
-10 -34 -12 -20 -6 -23 -19 -8 -28 6 -3 10 -12 10 -19 0 -9 -22 -16 -68 -22
-61 -7 -64 -8 -32 -15 19 -3 27 -7 18 -8 -10 0 -25 -16 -35 -33 -15 -27 -18
-57 -18 -168 1 -74 4 -160 9 -190 5 -42 5 -52 -5 -43 -28 28 -25 345 5 413 6
14 -7 15 -101 8 -60 -4 -146 -4 -192 0 -72 6 -85 10 -87 26 -1 11 4 29 13 40
12 16 14 17 9 3 -3 -10 2 -25 14 -37 18 -18 33 -19 177 -18 87 1 142 4 123 7
-23 4 -31 9 -23 14 19 12 16 57 -2 57 -9 0 -18 -8 -22 -17 -15 -42 -36 -50
-128 -52 -65 0 -95 3 -113 15 -22 15 -23 16 -7 41 16 24 16 25 -4 18 -14 -4
-24 0 -32 13 -7 11 -19 18 -27 15 -8 -3 -17 -1 -21 5 -5 8 -16 3 -33 -13 -23
-21 -28 -22 -39 -9 -17 21 -23 10 -9 -17 11 -19 10 -21 -3 -16 -14 5 -14 2 -1
-28 11 -28 12 -33 1 -29 -31 12 -45 -34 -33 -110 5 -29 2 -42 -10 -51 -12 -8
-14 -14 -6 -19 7 -4 12 -19 12 -34 1 -25 1 -26 12 -7 6 11 16 24 22 28 8 6 7
10 -1 14 -19 7 -17 44 2 37 9 -4 15 -19 15 -36 0 -17 8 -67 17 -112 16 -78 14
-114 -7 -146 -8 -12 -13 -13 -30 -2 -23 14 -27 0 -5 -18 9 -7 15 -29 15 -52 0
-52 24 -99 48 -91 13 5 15 3 5 -7 -7 -7 -9 -25 -6 -41 5 -29 -5 -37 -23 -20
-5 6 -13 1 -21 -15 -6 -13 -7 -24 -3 -24 5 0 15 -3 23 -6 9 -3 17 0 20 8 2 7
2 0 -1 -17 -6 -42 -6 -55 3 -100 l8 -40 -21 25 c-23 29 -27 27 -37 -18 -7 -32
-6 -33 13 -23 34 18 37 14 34 -51 -2 -35 2 -74 8 -88 l10 -25 -3 28 c-3 15 0
30 4 33 5 3 9 16 9 29 0 13 4 26 9 29 10 6 9 20 -4 49 -4 9 -5 31 -3 48 3 20
0 33 -9 36 -15 6 -18 49 -3 58 6 4 9 1 8 -7 -2 -8 4 -12 15 -10 15 2 17 -6 17
-58 0 -36 -4 -60 -11 -60 -6 0 -3 -7 5 -16 9 -8 13 -20 10 -26 -4 -6 -2 -8 4
-4 6 3 14 1 17 -5 5 -7 -1 -9 -16 -7 -18 2 -24 -2 -24 -17 0 -16 6 -19 27 -17
22 3 26 0 21 -17 -4 -16 -9 -19 -23 -11 -24 13 -40 13 -40 -1 0 -5 6 -7 13 -3
8 5 7 2 -2 -9 -12 -15 -12 -19 0 -30 8 -7 12 -11 10 -10 -9 6 -31 -21 -31 -38
0 -20 -16 -35 -18 -16 -1 7 -3 28 -5 47 -6 54 -17 80 -34 80 -9 0 -13 -6 -9
-15 3 -8 9 -22 12 -30 4 -11 2 -13 -9 -9 -10 3 -17 -1 -20 -13 -4 -11 -5 -9
-4 7 1 14 -2 26 -8 27 -11 2 -11 -16 3 -69 6 -21 6 -38 2 -38 -4 0 -10 -9 -13
-20 -5 -20 9 -26 28 -12 13 9 16 64 4 56 -5 -3 -9 0 -9 6 0 6 8 10 17 8 33 -6
45 -156 17 -197 -10 -14 -14 -33 -10 -51 4 -21 2 -28 -7 -24 -7 2 -18 -5 -25
-16 -11 -18 -10 -20 12 -20 13 0 27 6 30 13 3 6 3 1 0 -12 -3 -13 -7 -29 -8
-35 -1 -6 -5 -17 -10 -24 -5 -9 -1 -18 10 -27 27 -21 31 -18 26 15 -2 17 -8
30 -13 30 -6 0 -5 10 2 21 7 14 14 18 18 11 4 -6 12 -7 20 -3 17 11 4 34 -14
27 -7 -2 -15 4 -18 15 -4 14 0 19 14 19 10 0 19 -4 19 -9 0 -5 9 -11 20 -14
18 -5 20 -14 20 -115 0 -62 -4 -114 -10 -117 -12 -7 -50 12 -50 25 0 6 7 10
15 10 8 0 15 4 15 9 0 5 3 17 7 26 5 14 3 16 -13 7 -10 -5 -23 -11 -29 -13 -5
-2 -9 -10 -7 -18 6 -24 -8 -61 -22 -61 -8 0 -16 -9 -19 -21 -5 -18 -2 -20 16
-15 12 3 26 6 30 6 5 0 6 9 2 19 -3 11 -1 22 4 25 15 10 43 -24 35 -43 -3 -9
-8 -25 -10 -36 -4 -20 -4 -20 5 0 8 16 10 12 11 -25 2 -25 2 -49 1 -54 -1 -5
5 -16 14 -26 8 -9 13 -19 10 -22 -3 -2 1 -5 8 -6 6 -1 32 -6 57 -11 39 -7 41
-9 14 -10 -27 -1 -32 -5 -36 -29 -3 -25 0 -30 28 -38 25 -8 31 -8 27 3 -3 7
-2 24 1 38 5 20 12 25 34 23 34 -2 55 10 48 28 -8 20 15 66 30 60 22 -9 24 23
2 44 -17 16 -19 23 -10 32 18 18 14 31 -8 25 -26 -7 -36 11 -17 30 19 19 57 8
58 -18 2 -22 3 -28 13 -52 5 -9 6 -26 3 -37 -4 -16 -2 -18 13 -10 33 18 60 12
60 -12 1 -22 2 -22 16 4 8 15 23 32 34 38 12 6 18 15 15 21 -4 5 -10 7 -15 4
-5 -3 -16 2 -24 11 -9 8 -16 12 -16 7 0 -5 5 -14 12 -21 9 -9 9 -12 1 -12 -12
0 -28 38 -20 46 2 3 17 -1 33 -7 16 -7 33 -11 38 -10 8 2 5 -17 -9 -52 -6 -13
-2 -17 16 -17 22 0 22 0 3 -19 -10 -10 -23 -16 -28 -13 -5 3 -7 -2 -3 -11 3
-10 2 -17 -4 -17 -5 0 -7 -11 -3 -24 5 -20 0 -27 -25 -40 -35 -18 -45 -20 -36
-6 3 6 -1 10 -9 10 -20 0 -20 -14 -1 -30 8 -6 20 -8 27 -4 7 5 18 9 23 9 6 1
17 4 25 7 8 4 32 9 53 13 38 6 38 7 21 26 -17 19 -40 27 -30 10 3 -5 -1 -12
-10 -15 -24 -9 -31 -7 -14 4 8 5 10 10 3 10 -6 0 -9 9 -6 20 3 11 12 20 19 20
8 0 14 7 14 15 0 19 1 19 82 -4 37 -11 98 -22 135 -26 89 -10 118 -31 73 -55
-14 -8 -25 -7 -39 2 -26 16 -31 10 -22 -32 4 -23 9 -31 15 -22 4 7 16 10 26 7
14 -5 17 -2 13 13 -3 15 2 21 21 24 15 3 31 0 37 -8 8 -10 15 -11 30 -1 17 10
22 9 32 -4 9 -12 18 -14 36 -7 13 4 38 6 56 2 19 -3 35 -1 39 5 4 6 20 11 37
11 16 0 29 5 29 11 0 5 5 7 11 4 15 -10 4 -17 -38 -25 l-38 -8 40 -1 c74 -2
115 -13 115 -29 0 -13 3 -12 14 3 11 15 29 20 87 22 48 2 67 0 54 -6 -11 -4
-36 -7 -55 -6 -19 1 -26 0 -15 -2 11 -3 24 -8 28 -13 5 -4 21 -2 35 6 39 20
90 18 95 -4 4 -15 5 -15 13 3 8 18 20 20 138 22 127 2 490 38 529 52 19 7 78
-7 94 -23 4 -4 1 -11 -6 -15 -9 -6 -5 -10 14 -15 19 -5 33 -2 44 9 10 8 22 15
28 15 6 0 13 5 15 11 3 9 10 9 27 0 12 -7 27 -10 34 -8 7 3 -3 10 -20 17 -18
7 -33 18 -33 25 0 7 -8 16 -17 19 -15 6 -15 8 -3 16 13 8 12 10 -2 10 -10 0
-18 -4 -18 -9 0 -5 -11 -8 -25 -8 -20 0 -23 3 -15 17 5 9 16 22 24 30 14 10
16 10 16 -5 0 -12 6 -16 20 -12 10 3 19 2 18 -2 0 -3 1 -9 2 -13 1 -5 3 -14 4
-20 1 -7 9 -12 19 -12 9 1 15 -2 12 -6 -3 -4 9 -10 26 -12 16 -3 32 -1 35 3 6
10 34 0 34 -13 0 -5 -5 -6 -10 -3 -6 4 -10 3 -9 -2 3 -19 -2 -23 -21 -13 -17
9 -20 8 -20 -9 0 -11 -3 -27 -7 -37 -5 -14 -3 -15 12 -7 10 6 26 8 37 6 14 -4
18 0 16 18 -3 20 1 24 22 21 14 -1 38 -3 53 -4 19 -1 24 -5 17 -12 -7 -7 -23
-7 -53 1 -38 10 -40 10 -22 -3 15 -11 36 -13 85 -9 55 6 69 11 93 37 23 24 28
38 25 65 -4 31 -2 35 26 40 l30 6 -30 26 c-41 36 -57 76 -42 104 10 19 9 21
-4 9 -12 -9 -18 -10 -23 -2 -12 19 13 36 33 23 15 -9 20 -5 36 34 18 42 18 59
0 128 l-7 27 27 -17 c25 -17 26 -17 26 3 0 31 -11 52 -26 52 -8 0 -14 -4 -14
-9 0 -13 -42 -5 -50 9 -4 6 -14 8 -23 4 -14 -5 -16 -2 -10 12 6 15 3 14 -17
-4 -21 -19 -22 -24 -10 -32 12 -7 9 -13 -13 -34 l-28 -26 4 25 c1 13 7 28 12
32 4 4 5 2 1 -4 -4 -7 -2 -13 4 -13 14 0 8 22 -8 28 -6 2 -14 -9 -17 -25 -3
-15 -12 -50 -20 -78 -8 -27 -16 -69 -19 -93 -5 -50 -3 -47 -35 -57 -22 -7 -23
-5 -19 29 2 20 0 36 -4 36 -4 0 -8 6 -8 13 0 21 -46 57 -57 46 -7 -7 -19 11
-38 55 -35 82 -51 86 -24 6 19 -55 20 -62 5 -91 -9 -18 -16 -38 -16 -45 0 -20
19 -27 35 -14 20 16 19 7 -2 -33 -15 -27 -23 -32 -49 -29 -25 2 -33 -1 -39
-20 l-7 -23 -6 22 c-6 19 -9 20 -25 8 -12 -9 -16 -18 -10 -27 10 -16 35 -17
46 -1 4 6 15 10 25 8 9 -2 23 -4 30 -4 6 -1 12 -6 12 -12 0 -6 -9 -9 -20 -6
-11 3 -20 0 -20 -6 0 -7 -5 -5 -10 3 -7 12 -11 8 -16 -17 -7 -37 -19 -43 -27
-13 -3 13 -10 18 -21 14 -10 -4 -16 -1 -16 9 0 14 -5 14 -32 5 -27 -10 -29
-12 -15 -23 10 -7 17 -18 17 -24 0 -7 11 -4 28 9 l27 22 3 -22 c4 -27 2 -29
-36 -34 -18 -2 -38 -8 -45 -15 -25 -20 -293 -53 -546 -67 -123 -7 -123 -7
-116 15 7 24 6 25 -30 11 -18 -7 -33 -7 -46 0 -15 8 -19 7 -19 -5 0 -12 -15
-15 -80 -15 -75 0 -80 1 -80 22 0 20 -1 20 -20 3 -14 -13 -27 -15 -47 -10 -15
4 -44 7 -64 6 -20 -1 -75 7 -122 19 -86 20 -138 41 -362 142 -149 68 -203 86
-302 101 l-78 12 0 105 c1 114 8 160 28 160 10 0 12 50 10 225 -1 124 -5 230
-9 237 -4 7 -3 8 4 4 14 -8 15 3 3 22 -11 17 -21 -7 -21 -49 0 -21 -5 -29 -17
-29 -16 0 -18 10 -15 107 3 89 2 105 -10 96 -20 -16 -78 -14 -78 3 0 17 16 19
23 2 3 -7 6 3 8 22 l2 35 6 -32 c5 -28 8 -30 23 -19 17 12 17 14 -2 35 -19 23
-40 21 -40 -5 0 -8 -5 -14 -11 -14 -5 0 -8 4 -5 9 3 5 0 11 -7 14 -9 3 -12
-22 -10 -109 1 -64 -3 -114 -8 -114 -5 0 -9 69 -8 163 1 128 3 153 11 119 10
-48 28 -47 28 1 0 24 3 28 10 17 9 -13 10 -13 10 0 0 12 2 13 9 1 7 -11 9 -11
14 0 3 8 6 2 6 -13 1 -28 -14 -39 -21 -16 -3 7 -7 6 -11 -5 -4 -12 -1 -17 11
-17 10 0 23 -5 29 -11 15 -15 27 23 19 57 -4 16 -2 24 6 24 10 0 12 -37 8
-170 -3 -94 -2 -170 3 -170 4 0 7 74 7 165 0 91 4 165 9 165 5 0 19 -8 32 -19
22 -18 23 -18 57 5 41 28 104 32 157 10 19 -8 35 -11 35 -7 0 5 -7 46 -16 92
-21 106 -25 354 -6 387 16 28 48 48 89 57 25 5 36 2 49 -14 10 -11 22 -17 27
-14 5 3 3 10 -4 15 -11 8 -11 9 1 5 8 -2 14 -10 12 -16 -1 -7 2 -9 8 -6 6 4 9
13 6 21 -3 8 -1 14 4 14 6 0 10 -4 10 -9 0 -11 79 -31 125 -31 20 0 46 5 57
11 18 10 20 9 15 -5 -3 -8 -2 -18 3 -21 6 -4 10 1 10 10 0 9 4 14 10 10 5 -3
19 0 30 7 17 11 22 11 29 -1 5 -7 14 -10 20 -7 6 4 11 0 11 -9 0 -9 -6 -15
-12 -12 -7 2 -19 -3 -26 -12 -12 -14 -13 -14 -8 1 5 18 -10 36 -16 18 -1 -5
-14 -10 -28 -10 -49 0 -186 16 -197 23 -6 4 -14 3 -18 -3 -4 -6 -11 -7 -17 -4
-6 4 -8 2 -4 -4 3 -6 2 -14 -4 -17 -6 -4 -10 -3 -9 2 4 20 -2 24 -18 12 -9 -8
-14 -9 -11 -4 3 6 -1 17 -10 24 -14 13 -15 12 -9 -8 4 -17 3 -20 -8 -11 -7 6
-29 8 -52 4 -37 -6 -39 -8 -35 -36 3 -21 8 -26 15 -19 6 6 20 11 30 11 16 0
17 2 7 15 -19 22 -8 26 24 10 16 -9 34 -15 40 -14 25 3 36 -2 36 -16 0 -18 1
-18 36 0 19 10 58 15 116 15 84 0 87 -1 110 -30 l24 -30 22 29 22 30 150 0
c110 0 152 -3 154 -12 15 -48 16 -49 31 -37 8 7 13 15 10 19 -2 4 11 7 30 7
18 -1 31 -3 29 -5 -5 -6 17 -31 27 -31 5 0 9 11 9 25 0 17 7 26 23 30 12 2
116 4 232 2 l210 -2 13 -27 c7 -16 16 -28 20 -28 9 0 33 51 28 59 -2 3 33 5
79 3 58 -2 87 -8 96 -18 10 -13 14 -12 29 1 32 29 200 32 200 5 0 -6 -6 -10
-14 -10 -7 0 -16 -12 -19 -26 -3 -19 -1 -24 10 -20 8 3 19 6 25 6 6 0 8 7 4
15 -3 8 0 15 5 15 7 0 9 -11 7 -24 -5 -24 -4 -25 44 -19 32 4 48 2 48 -5 0 -6
-7 -9 -15 -6 -12 5 -15 -2 -15 -29 0 -35 0 -35 30 -24 31 12 37 21 20 32 -5 3
-10 13 -10 22 0 10 5 13 18 8 45 -19 47 -18 48 35 1 28 5 55 10 60 13 13 54
-16 54 -36 0 -8 5 -12 10 -9 6 3 10 0 10 -7 0 -7 -9 -19 -20 -26 -14 -8 -20
-23 -20 -46 0 -19 -4 -38 -10 -41 -5 -3 -10 -17 -10 -31 0 -14 -4 -23 -10 -19
-5 3 -16 -8 -25 -25 -15 -29 -15 -30 7 -27 13 1 25 10 28 19 5 15 7 15 28 -3
l24 -19 -21 -26 c-12 -15 -21 -38 -21 -51 l0 -25 19 23 c10 13 17 28 14 35 -2
6 3 17 12 24 12 10 15 10 15 -4 0 -9 -7 -31 -16 -47 -16 -32 -11 -115 6 -104
5 3 10 -3 12 -12 7 -32 -4 -66 -23 -70 -21 -6 -24 -14 -9 -29 6 -6 12 -25 13
-42 2 -33 17 -45 17 -14 0 10 7 28 16 41 13 19 14 25 4 31 -10 6 -11 16 -3 42
6 18 11 25 12 16 1 -12 9 -18 26 -18 26 0 26 0 8 25 -10 13 -23 25 -29 25 -29
0 -62 100 -34 100 6 0 10 -9 10 -21 0 -12 5 -19 13 -16 6 2 22 0 35 -4 12 -5
22 -7 22 -6 0 13 -48 63 -57 60 -14 -5 -7 65 8 81 20 22 9 63 -23 90 -28 23
-51 65 -27 50 5 -3 6 -10 3 -16 -4 -7 -2 -8 4 -4 6 4 9 12 7 19 -2 7 0 28 4
47 8 31 9 32 10 8 1 -33 21 -31 61 4 21 18 28 32 23 43 -13 35 22 9 41 -30 31
-61 31 -23 0 45 -23 52 -30 60 -48 54 -12 -3 -23 -6 -26 -6 -22 0 -30 3 -25
12 3 6 0 10 -7 10 -8 0 -6 5 5 11 14 8 23 7 39 -8 20 -18 20 -17 17 2 -4 16
-12 20 -47 20 -33 -1 -42 3 -40 15 2 10 15 15 38 16 19 1 29 0 22 -3 -6 -3 -9
-9 -6 -15 4 -5 14 -2 25 8 12 11 24 14 36 9 15 -7 13 -9 -12 -14 -25 -6 -26
-8 -10 -12 11 -2 36 -2 55 2 19 3 28 7 19 8 -8 0 -25 10 -37 21 -12 11 -30 20
-42 20 -11 0 -20 3 -20 8 0 12 -78 1 -90 -13 -8 -10 -8 -19 0 -35 14 -26 13
-27 -27 -34 -21 -4 -33 -2 -36 8 -8 20 16 26 29 7 10 -12 12 -10 12 12 0 15
-4 30 -9 33 -5 3 -9 0 -9 -5 0 -6 -10 -10 -22 -8 -18 1 -23 -3 -21 -18 1 -14
-2 -11 -10 8 -6 15 -14 27 -19 27 -4 0 -8 8 -8 18 0 9 -4 23 -9 30 -6 10 -10
6 -15 -14z m-2436 -94 c3 0 11 -4 19 -9 12 -8 12 -12 -2 -25 -14 -14 -17 -13
-37 12 -20 26 -21 26 -14 3 5 -18 3 -22 -7 -16 -8 5 -4 -3 9 -17 20 -22 21
-26 7 -32 -37 -14 -40 1 -19 103 l7 34 16 -27 c8 -14 18 -26 21 -26z m1383 8
c14 -23 15 -26 2 -22 -8 4 -15 12 -15 20 0 19 -15 18 -35 -2 -11 -12 -13 -20
-6 -27 14 -14 14 -27 -1 -27 -6 0 -9 3 -5 6 3 4 -4 15 -16 26 -17 15 -18 18
-4 14 19 -6 24 10 5 17 -7 3 -1 6 14 6 15 1 30 6 33 12 4 6 8 9 9 7 1 -2 10
-15 19 -30z m692 -28 c-4 -6 5 -10 19 -10 14 0 26 -4 26 -10 0 -16 -46 -12
-60 5 -9 11 -9 15 -1 15 7 0 9 5 6 10 -4 6 -11 8 -16 5 -5 -4 -9 6 -9 21 l0
27 21 -27 c11 -14 17 -30 14 -36z m395 56 c0 -2 3 -12 7 -22 5 -14 3 -16 -13
-10 -11 4 -4 -6 15 -23 31 -28 32 -31 13 -31 -14 0 -22 -6 -22 -17 0 -15 -2
-16 -10 -3 -6 10 -12 12 -19 5 -7 -7 -4 -14 9 -22 16 -11 20 -9 25 7 4 11 13
20 21 20 19 0 18 -19 -1 -26 -8 -4 -12 -11 -8 -17 3 -5 1 -7 -4 -4 -6 4 -14
-1 -18 -10 -3 -10 -1 -19 4 -21 17 -6 13 -22 -5 -22 -8 0 -13 4 -10 8 2 4 -13
8 -35 7 -21 0 -39 -3 -39 -7 0 -4 -7 -5 -15 -2 -8 4 -15 10 -15 15 0 4 6 6 14
3 11 -4 13 3 9 30 -4 30 -1 36 14 38 10 0 23 2 28 3 6 2 15 4 20 5 6 1 1 5
-10 10 -16 7 -14 9 15 9 34 1 34 1 13 18 -17 14 -19 21 -10 40 9 19 27 32 27
19z m-1185 -25 c-4 -13 1 -27 15 -41 22 -22 23 -41 2 -48 -7 -2 -12 8 -13 25
-1 23 -3 20 -11 -14 -9 -42 -9 -42 -28 -23 -18 18 -34 20 -145 20 l-125 0 -38
-35 -39 -35 -23 25 c-13 14 -18 25 -12 25 7 0 12 -5 12 -10 0 -6 7 -13 15 -16
19 -8 75 44 68 63 -4 9 0 11 12 7 10 -4 21 -1 27 7 8 11 9 10 4 -3 -5 -16 4
-18 90 -18 108 0 145 13 169 60 17 34 30 40 20 11z m1355 -74 c0 -21 -10 -25
-40 -16 -24 7 -24 7 -2 8 22 1 28 11 15 25 -4 3 -8 16 -10 28 -3 20 -2 19 17
-5 11 -14 20 -32 20 -40z m-1252 9 c2 -18 0 -26 -7 -21 -7 3 -10 1 -9 -6 4
-16 -22 -22 -42 -9 -12 7 -13 11 -2 22 11 11 13 10 10 -1 -2 -7 2 -15 9 -18 8
-3 9 6 3 32 -8 33 -6 36 13 33 16 -2 23 -11 25 -32z m238 -6 c89 0 174 4 187
9 21 8 24 7 20 -9 -3 -12 2 -20 15 -24 11 -4 23 -14 26 -22 3 -8 10 -12 16 -9
5 3 10 2 10 -3 0 -21 -13 -18 -40 10 -22 22 -36 28 -52 23 -18 -5 -20 -4 -8 4
11 8 -39 11 -175 11 -204 0 -225 -5 -245 -54 -8 -18 -9 -18 -9 -3 -1 11 13 32
29 47 18 17 26 31 20 35 -5 3 -10 1 -10 -6 0 -7 -2 -10 -5 -7 -3 3 -3 12 1 21
5 15 9 15 31 -3 23 -18 41 -20 189 -20z m958 31 c-2 -2 2 -11 9 -19 10 -13 9
-15 -6 -9 -10 4 -26 7 -36 7 -9 0 -26 6 -37 14 -17 13 -15 14 28 13 25 -1 45
-4 42 -6z m-618 -17 c18 -12 28 -14 36 -6 8 8 17 8 31 1 14 -8 18 -8 13 0 -9
14 6 15 20 1 5 -5 70 -11 144 -13 114 -2 104 -3 -61 -5 -162 -2 -198 0 -202
12 -4 9 -14 12 -26 9 -26 -7 -27 -20 -3 -26 9 -2 0 -4 -21 -4 -21 0 -41 5 -44
10 -4 6 -1 7 8 2 12 -7 12 -6 1 7 -12 15 -9 17 30 21 24 2 44 4 46 5 1 1 14
-5 28 -14z m-2039 -23 c-5 -22 -2 -28 10 -27 10 0 17 -8 18 -21 1 -12 -3 -19
-8 -16 -5 3 -7 -5 -3 -18 l6 -24 -12 23 c-6 13 -17 21 -25 18 -14 -6 -19 47
-7 78 11 28 27 18 21 -13z m68 19 c3 -5 13 -10 21 -10 8 0 12 5 9 10 -8 13 75
2 90 -11 5 -6 -3 -7 -20 -4 -18 4 -46 0 -67 -9 -52 -22 -48 -28 7 -10 25 9 50
13 57 11 7 -3 4 -6 -7 -7 -11 0 4 -10 35 -23 40 -16 56 -29 61 -47 6 -22 7
-22 8 -4 1 21 -22 47 -49 56 -8 3 12 5 45 3 88 -3 95 -4 95 -16 0 -5 -5 -7
-11 -4 -7 5 -8 -5 -3 -32 9 -50 14 -54 14 -11 0 50 27 72 79 63 38 -6 41 -9
35 -33 -9 -35 -14 -41 -14 -15 0 32 -26 48 -56 35 -19 -9 -23 -17 -18 -36 7
-29 -11 -66 -31 -66 -8 0 -15 5 -15 10 0 15 -29 12 -46 -5 -9 -9 -11 -15 -4
-15 6 0 8 -4 5 -10 -12 -20 -25 -9 -26 23 -1 23 -3 26 -6 10 -8 -44 -43 -16
-43 33 0 38 -11 48 -41 39 -16 -5 -20 -13 -16 -31 3 -16 0 -24 -9 -24 -8 0
-13 -6 -12 -12 2 -7 -3 -12 -9 -10 -9 1 -13 -10 -13 -33 0 -19 -4 -35 -9 -35
-5 0 -7 24 -5 53 1 28 3 59 4 67 0 13 2 13 9 0 6 -8 7 -18 5 -22 -3 -4 2 -5
11 -1 12 4 13 8 5 13 -7 5 -9 13 -5 21 5 8 5 11 0 7 -4 -4 -16 -3 -26 3 -18 9
-19 2 -20 -158 -1 -92 -3 -183 -5 -201 l-2 -33 46 7 c60 8 70 17 15 12 -37 -3
-43 -1 -43 15 0 15 3 17 13 8 8 -6 78 -15 156 -21 79 -6 153 -12 165 -14 11
-3 33 -7 49 -11 26 -5 27 -4 21 21 -5 19 -4 25 5 20 12 -8 16 -56 4 -56 -5 0
-41 5 -80 10 -79 10 -105 6 -96 -16 3 -9 -1 -14 -12 -14 -9 0 -14 4 -11 9 13
21 -187 26 -236 6 -14 -5 -18 -2 -18 12 0 10 -6 25 -13 32 -10 10 -9 15 4 24
12 9 14 19 7 42 -4 17 -5 50 -2 75 4 35 3 42 -6 30 -9 -12 -10 -11 -6 6 4 11
2 45 -4 74 -11 56 2 126 21 115 12 -8 12 -77 -1 -109 -6 -15 -6 -26 0 -26 5 0
10 -19 12 -42 2 -24 5 -2 5 47 3 113 -5 167 -20 158 -7 -3 -3 3 7 15 19 22 19
23 0 37 -10 8 -14 15 -7 15 6 0 15 -4 18 -10z m2709 -6 c9 -8 16 -17 16 -19 0
-6 -33 6 -47 18 -9 7 -13 5 -13 -7 0 -9 4 -16 10 -16 5 0 6 -8 3 -17 -6 -15
-7 -15 -14 3 -7 18 -8 18 -8 -1 -1 -12 -6 -26 -13 -33 -10 -10 -15 -7 -25 10
-7 13 -12 17 -13 10 0 -14 -20 -7 -20 8 0 9 26 7 36 -3 10 -10 24 -9 24 2 0 5
4 21 10 35 11 30 31 33 54 10z m-2294 -3 c0 -5 -19 -7 -42 -4 -24 2 -61 0 -83
-5 -33 -9 -28 -9 33 -5 41 3 72 2 72 -3 0 -9 -60 -14 -115 -11 -11 0 -54 1
-96 1 -105 1 -74 22 35 25 44 1 82 4 85 6 8 9 111 5 111 -4z m-62 -94 c2 -14
10 -31 18 -37 8 -7 14 -24 14 -38 0 -14 -3 -22 -7 -18 -5 4 -8 12 -8 18 0 6
-7 16 -17 21 -20 13 -52 -8 -41 -27 4 -6 6 -20 4 -31 -2 -11 0 -17 5 -13 4 4
7 21 6 38 0 19 4 30 13 30 8 0 14 -8 13 -17 0 -32 25 -142 32 -138 4 2 8 -1 9
-8 4 -29 9 -87 6 -87 -1 0 -19 7 -38 15 -20 8 -42 12 -50 9 -20 -7 -33 16 -16
27 8 5 10 9 4 9 -18 0 -32 -15 -39 -40 -3 -14 -3 -19 0 -13 4 9 11 10 24 3 10
-5 25 -7 33 -4 8 3 18 1 22 -5 3 -6 16 -11 28 -11 20 0 20 -1 5 -16 -13 -13
-28 -15 -87 -9 -39 4 -71 11 -71 17 0 5 8 7 18 5 9 -3 40 -8 67 -11 42 -4 45
-4 20 5 -41 13 -126 15 -207 5 -48 -6 -68 -6 -68 2 0 6 7 9 15 6 20 -8 87 5
81 15 -3 4 18 6 47 4 48 -3 50 -3 27 9 -14 8 -26 24 -28 38 -2 17 0 21 6 12 6
-8 9 14 9 59 0 63 3 75 22 91 13 10 17 18 10 18 -10 0 -10 3 -2 11 15 15 34 3
26 -16 -3 -8 0 -15 6 -15 6 0 11 -12 11 -27 0 -19 -3 -24 -9 -15 -4 7 -6 -13
-4 -45 6 -75 5 -74 23 -63 9 6 11 13 5 18 -15 11 -18 44 -4 52 6 5 13 32 14
60 1 42 6 56 26 71 13 10 18 19 12 19 -7 0 -13 12 -13 26 0 34 24 27 28 -9z
m-220 -7 c-2 -32 -22 -40 -32 -14 -6 17 9 44 25 44 5 0 8 -13 7 -30z m2 -53
c0 -4 6 -14 14 -23 26 -26 1 -64 -41 -64 -28 0 -30 16 -3 32 17 11 29 48 16
48 -2 0 -11 2 -18 5 -9 4 -14 -2 -14 -14 0 -12 6 -17 16 -14 8 3 4 -4 -10 -15
-13 -11 -28 -18 -32 -16 -4 3 -8 0 -8 -7 0 -7 -2 -10 -5 -7 -9 8 6 38 16 32 5
-3 9 -1 9 5 0 5 -5 11 -12 13 -7 3 -3 12 11 25 16 15 29 19 43 14 11 -4 19
-10 18 -14z m54 -41 c6 -24 -7 -76 -19 -76 -4 0 -4 4 0 9 3 5 1 12 -5 16 -6 4
-8 11 -4 16 3 5 10 7 15 4 5 -4 9 1 9 10 0 9 -4 14 -8 11 -4 -2 -8 4 -8 15 0
27 13 24 20 -5z m2436 -52 c0 -24 -21 -26 -44 -5 -12 12 -25 19 -27 17 -4 -4
-3 39 0 52 3 9 71 -52 71 -64z m-2561 10 c28 18 16 -70 -15 -109 l-24 -30 2
48 c0 26 5 47 10 47 4 0 8 -6 8 -12 0 -9 3 -8 9 2 12 18 5 31 -14 23 -11 -4
-15 2 -15 22 0 23 2 25 15 15 8 -6 18 -9 24 -6z m96 -34 c-2 -11 0 -22 6 -25
5 -4 9 -1 9 4 0 6 5 11 10 11 6 0 4 -15 -5 -36 -14 -34 -14 -38 2 -51 16 -13
16 -13 -7 -7 -33 9 -32 7 -21 37 10 26 1 31 -27 13 -7 -4 -16 -5 -20 -1 -4 4
-1 10 6 12 6 3 12 10 12 16 0 6 -8 3 -17 -6 -17 -17 -17 -19 0 -31 9 -7 17
-22 17 -34 0 -17 -7 -21 -50 -24 -51 -3 -71 8 -23 14 21 2 27 9 29 33 8 82 14
95 50 95 27 0 32 -3 29 -20z m-195 -141 c-9 -15 -9 -24 -1 -32 6 -6 11 -24 11
-39 0 -25 2 -27 19 -18 29 15 31 13 31 -27 -1 -31 -3 -35 -11 -20 -6 9 -15 15
-20 11 -19 -12 -39 19 -39 60 0 32 -3 38 -11 26 -12 -17 -11 -12 11 43 8 21
16 34 18 28 2 -5 -2 -20 -8 -32z m450 -25 c0 -8 -9 -14 -20 -14 -22 0 -26 10
-8 28 13 13 28 7 28 -14z m-394 -230 c-9 -24 -29 -16 -22 9 7 28 -3 69 -15 61
-5 -3 -9 -3 -9 1 0 3 10 9 23 14 20 8 22 5 25 -31 2 -22 1 -47 -2 -54z m74 1
c1 20 1 20 9 0 8 -20 8 -20 13 0 4 14 6 10 7 -12 1 -30 -18 -49 -20 -20 0 10
-2 10 -6 0 -9 -25 -23 -13 -22 20 0 27 2 29 9 12 9 -20 9 -20 10 0z m15 -76
c-4 -5 0 -9 7 -10 7 0 3 -5 -10 -11 -12 -6 -26 -8 -30 -3 -4 4 -1 10 6 12 6 3
12 11 12 19 0 9 5 12 10 9 6 -4 8 -11 5 -16z m31 -48 c-6 -37 11 -71 27 -54 4
3 7 1 7 -5 0 -20 -17 -22 -34 -3 -10 11 -25 18 -34 16 -22 -3 -42 13 -42 34 0
14 2 14 10 1 8 -13 10 -12 10 3 0 20 11 22 28 5 7 -7 13 -9 13 -5 1 4 3 12 4
17 1 6 3 15 4 20 0 6 4 10 7 10 4 0 4 -17 0 -39z m-46 -61 c13 -7 20 -6 23 3
3 6 8 -3 12 -20 4 -18 13 -33 20 -33 22 0 39 -28 26 -43 -6 -8 -7 -18 -3 -22
4 -5 1 -5 -6 -1 -7 4 -10 16 -7 26 3 10 1 21 -5 25 -6 4 -10 3 -9 -2 1 -4 -1
-16 -6 -26 -5 -12 -1 -23 14 -36 12 -11 18 -22 13 -24 -13 -9 -1 -78 14 -84
16 -6 20 -93 4 -93 -5 0 -10 19 -10 43 0 23 -8 51 -17 62 -15 19 -15 18 -8
-15 4 -19 9 -55 12 -78 l4 -44 -33 7 c-18 4 -35 9 -37 11 -2 2 2 23 9 46 7 24
15 37 17 31 6 -18 23 -16 23 2 0 8 -4 15 -10 15 -5 0 -10 7 -10 15 0 8 -5 15
-11 15 -8 0 -7 6 2 17 10 11 10 14 2 9 -8 -4 -13 -1 -13 9 0 9 5 13 11 9 8 -5
8 -1 0 14 -8 15 -8 23 0 27 6 4 8 12 6 19 -18 47 -19 59 -5 54 11 -5 13 1 10
24 -3 19 -7 25 -12 18 -5 -9 -9 -9 -14 -1 -4 6 -12 8 -18 5 -7 -5 -8 -2 -3 6
6 9 4 11 -5 5 -9 -5 -11 -4 -6 3 5 8 2 10 -9 6 -14 -6 -14 -8 2 -20 10 -7 13
-14 7 -14 -17 0 -37 27 -25 34 6 4 7 14 4 24 -6 16 -6 16 11 -1 10 -9 26 -22
36 -27z m7 -83 c1 -35 -4 -58 -15 -72 -16 -18 -16 -19 1 -6 9 7 17 9 17 3 0
-5 -8 -13 -17 -17 -16 -6 -16 -7 -3 -15 18 -10 26 -75 10 -85 -5 -3 -10 -16
-10 -28 0 -16 -6 -23 -22 -24 -11 -1 -25 -8 -29 -15 -7 -10 -11 -10 -21 0 -13
13 -29 16 -25 5 1 -5 -2 -10 -8 -13 -6 -3 -11 18 -13 53 -2 35 1 57 8 57 5 0
10 -18 10 -40 0 -23 5 -40 11 -40 6 0 8 7 5 16 -3 9 -2 12 5 9 6 -4 8 -13 5
-21 -3 -7 -1 -16 4 -19 6 -4 10 1 10 9 0 9 5 16 10 16 6 0 10 13 10 30 0 18
10 39 25 55 23 22 21 31 -7 26 -5 0 -8 5 -8 12 0 9 -2 9 -9 -1 -4 -8 -12 -14
-17 -15 -5 -1 -7 -22 -6 -46 3 -31 1 -41 -8 -36 -6 4 -9 14 -6 22 3 8 2 12 -2
9 -5 -3 -8 16 -7 42 3 59 2 57 20 42 22 -18 26 -8 10 23 -7 15 -10 29 -6 31
13 8 27 -9 26 -33 0 -13 5 -26 10 -28 6 -2 11 6 11 17 0 11 -4 20 -8 20 -10 0
3 33 16 42 8 5 7 8 -1 8 -6 0 -9 8 -6 18 4 15 -1 18 -24 17 -16 -1 -19 0 -6 2
12 2 27 11 34 19 17 21 24 9 26 -49z m78 -295 c-16 -11 -19 -30 -23 -140 -5
-146 -5 -148 65 -156 132 -15 233 -56 233 -94 0 -15 2 -15 10 -2 11 16 13 11
14 -37 1 -36 -1 -38 -26 -20 -10 8 -14 22 -11 39 5 29 -18 50 -69 62 -25 6
-28 4 -28 -19 0 -15 5 -35 10 -46 7 -12 7 -19 1 -19 -5 0 -13 9 -16 20 -4 11
-10 18 -15 15 -4 -3 -11 2 -14 11 -3 8 -10 13 -15 9 -5 -3 -12 -1 -16 5 -8 13
11 13 36 0 16 -9 19 -7 19 9 0 26 -21 37 -99 51 -54 10 -66 9 -88 -5 -18 -12
-28 -14 -33 -6 -15 26 -80 -19 -80 -56 0 -26 -19 -32 -21 -5 -2 31 3 57 12 67
10 10 13 204 3 229 -3 9 -12 16 -20 16 -9 0 -14 12 -14 35 0 29 -4 35 -22 37
-13 1 29 4 92 7 117 6 132 5 115 -7z m2426 -112 c2 -13 3 -17 16 -62 7 -22 8
-50 4 -65 -8 -27 -9 -26 -35 31 -14 32 -26 64 -26 70 0 6 -4 4 -10 -4 -6 -9
-5 -17 2 -22 9 -5 9 -14 -1 -34 -7 -16 -8 -31 -3 -36 6 -6 12 -3 16 7 3 9 2
13 -4 10 -6 -3 -7 1 -3 10 4 13 8 14 14 4 4 -7 5 -17 3 -21 -3 -4 -1 -8 4 -8
11 0 25 -30 18 -37 -10 -10 -59 33 -77 68 l-19 39 27 -11 c21 -8 25 -7 17 1
-7 7 -9 20 -7 31 6 22 33 26 33 4 0 -8 5 -15 11 -15 5 0 7 -5 3 -12 -4 -7 -3
-8 4 -4 8 5 8 15 2 32 -12 32 -12 34 0 34 6 0 11 -4 11 -10z m-97 -101 c-8
-13 46 -70 59 -62 6 3 7 1 3 -6 -5 -7 -16 -9 -28 -5 -17 5 -20 3 -15 -11 4 -9
7 -21 7 -27 0 -6 7 -8 15 -5 8 4 17 2 20 -2 2 -5 -8 -11 -23 -14 -42 -9 -66
25 -57 83 7 45 12 60 21 60 3 0 2 -5 -2 -11z m-151 -51 c2 -7 0 -23 -4 -36 -6
-17 -4 -27 10 -41 18 -18 22 -18 61 -5 23 8 51 12 61 9 19 -6 35 -47 25 -63
-9 -15 -54 -20 -65 -9 -19 19 -12 45 12 50 19 4 19 4 2 5 -33 3 -49 -12 -36
-35 8 -17 6 -22 -15 -32 -37 -16 -64 -14 -65 7 -1 16 -2 16 -6 0 -3 -11 -15
-18 -31 -19 -15 0 -36 -5 -47 -10 -15 -7 -10 -8 22 -5 33 3 43 0 48 -12 5 -18
7 -33 3 -30 -2 1 -14 -4 -27 -11 -14 -8 -21 -9 -17 -2 4 6 2 11 -4 11 -6 0 -8
5 -5 11 4 6 13 8 21 5 7 -3 16 -1 19 4 4 6 -13 10 -39 10 -55 0 -59 14 -11 37
19 9 35 24 35 32 0 14 -1 14 -10 1 -8 -12 -10 -10 -10 8 0 24 24 75 48 100 6
7 12 16 12 19 0 3 -6 1 -12 -4 -7 -6 -25 -13 -40 -15 -24 -4 -26 -3 -17 13 5
11 16 16 24 13 10 -4 15 0 15 10 0 13 4 15 19 6 11 -5 21 -15 24 -22z m-2165
-70 c-3 -7 -13 -13 -23 -13 -10 0 -20 6 -22 13 -3 7 5 12 22 12 17 0 25 -5 23
-12z m-95 -23 c4 -8 2 -17 -3 -20 -6 -4 -10 -17 -10 -31 0 -13 -4 -24 -9 -24
-17 0 -41 -31 -41 -51 0 -15 6 -19 22 -17 11 2 23 -3 25 -9 3 -7 -2 -13 -9
-13 -27 0 -47 25 -54 66 -5 36 -4 42 15 47 12 3 19 1 16 -3 -3 -5 -1 -11 4
-14 12 -8 20 41 8 53 -5 5 -6 14 -3 20 10 16 33 14 39 -4z m27 5 c-11 -7 -6
-10 22 -10 34 0 68 -20 68 -40 0 -5 7 -16 16 -24 8 -9 11 -16 5 -16 -6 0 -17
-16 -25 -35 -8 -19 -17 -35 -20 -35 -2 0 -4 30 -4 68 1 56 -2 68 -17 70 -9 2
-22 -1 -28 -7 -7 -7 -4 -9 11 -6 25 4 26 0 11 -44 -13 -36 -45 -59 -61 -43 -7
7 -18 6 -34 -5 -25 -16 -28 -15 -18 11 3 9 12 16 20 16 7 0 16 12 20 28 3 15
8 34 11 42 6 14 9 23 12 35 0 3 7 5 14 5 8 0 7 -4 -3 -10z m2460 -21 c7 -11 9
-23 6 -26 -3 -3 7 -17 22 -30 19 -17 21 -22 8 -17 -13 5 -17 4 -12 -4 9 -16
-6 -15 -27 1 -9 6 -18 27 -19 44 -1 18 -8 35 -14 37 -13 5 -13 -11 -1 -31 4
-7 5 -24 1 -38 -5 -19 -2 -25 10 -25 9 0 16 -4 16 -10 0 -5 -6 -10 -14 -10 -8
0 -17 -6 -19 -12 -4 -10 -8 -9 -16 2 -9 13 -12 12 -17 -7 -6 -23 -31 -22 -31
2 0 14 22 20 55 16 14 -2 15 8 3 27 -7 11 -9 11 -14 -2 -4 -9 -14 -16 -24 -16
-15 0 -16 2 -3 10 8 5 15 15 15 22 0 7 8 12 17 12 14 -1 15 3 7 24 -5 14 -8
31 -5 39 8 20 44 15 56 -8z m-2071 -40 c1 11 4 11 17 0 9 -7 14 -22 11 -36 -2
-13 0 -23 4 -23 5 0 9 12 9 26 0 16 4 23 11 18 6 -3 9 -17 6 -30 -2 -13 0 -24
4 -24 5 0 9 12 9 27 0 23 13 25 16 2 1 -5 3 -17 4 -26 1 -11 5 -6 10 12 5 20
8 24 9 10 1 -16 3 -17 10 -6 8 12 12 10 22 -12 13 -28 32 -28 22 1 -6 15 -5
15 10 3 9 -7 14 -18 10 -25 -4 -6 0 -5 9 2 11 9 18 10 23 2 3 -5 3 -11 -2 -11
-34 -6 -59 -6 -68 -1 -5 3 -21 6 -35 7 -36 2 -124 27 -131 37 -3 5 -3 23 -1
41 4 27 6 29 13 12 4 -11 8 -14 8 -6z m1979 -27 c2 -7 -4 -12 -13 -12 -11 0
-16 -7 -14 -22 2 -13 -1 -29 -5 -37 -6 -9 -5 -12 2 -8 6 5 8 -1 5 -15 -5 -19
-3 -21 8 -10 7 6 21 12 30 12 10 0 19 5 21 12 2 6 10 8 17 4 9 -6 8 -12 -6
-23 -10 -8 -12 -12 -5 -8 6 3 12 1 12 -5 0 -6 5 -8 11 -4 6 3 8 17 5 30 -5 17
-2 24 9 24 8 0 15 -9 15 -20 0 -11 0 -23 0 -27 0 -5 -4 -8 -9 -8 -5 0 -13 -3
-17 -7 -15 -16 -54 -8 -55 10 0 16 -1 16 -8 -1 -9 -24 -23 -21 -38 7 -11 20
-18 22 -78 20 -39 -2 -63 1 -59 7 3 5 10 7 15 4 5 -4 9 -1 9 4 0 15 27 14 33
-1 2 -7 8 -9 13 -5 5 5 2 14 -8 21 -14 10 -16 24 -9 54 1 2 8 -4 17 -12 8 -9
20 -16 25 -16 6 0 3 7 -5 16 -21 21 -21 21 19 16 23 -3 35 0 35 8 0 14 22 8
28 -8z m-2320 -54 c2 -8 -7 -20 -20 -26 -23 -12 -23 -12 2 -6 21 5 23 4 12 -7
-11 -12 -17 -11 -39 1 -37 21 -38 34 -6 47 34 13 47 11 51 -9z m707 -43 c50
-13 82 -24 72 -24 -25 -1 -178 38 -197 50 -11 8 -8 9 10 4 14 -4 66 -17 115
-30z m1269 13 c3 6 16 8 28 4 21 -5 21 -6 2 -13 -17 -7 -17 -8 5 -8 13 -1 29
6 35 15 11 14 13 14 25 0 12 -14 11 -16 -5 -16 -16 0 -16 -2 -4 -10 26 -16
-13 -23 -60 -10 -82 22 -94 29 -80 45 11 14 15 14 30 0 11 -10 20 -12 24 -7z
m-1255 -38 l86 -17 -53 -4 c-30 -2 -56 0 -59 4 -3 5 -17 7 -31 6 -34 -2 -59 8
-66 27 -5 12 -1 14 16 8 11 -3 60 -14 107 -24z m252 -9 c-9 -6 -10 -11 -2 -15
6 -4 11 -12 11 -18 0 -6 -8 -4 -18 5 -10 10 -25 17 -33 18 -8 1 -3 5 11 9 34
11 48 11 31 1z"/>
<path d="M2589 1933 c-1 -4 -1 -12 0 -17 1 -4 -4 -14 -10 -22 -8 -10 -8 -14 0
-14 6 0 11 5 11 11 0 8 5 8 15 -1 8 -7 22 -9 31 -6 13 5 14 9 3 22 -16 20 -49
37 -50 27z"/>
<path d="M1437 1972 c-13 -14 -14 -21 -5 -30 19 -19 25 -14 30 18 5 34 -2 38
-25 12z"/>
<path d="M171 1618 c0 -13 4 -32 9 -43 7 -15 9 -10 9 23 1 23 -3 42 -9 42 -5
0 -10 -10 -9 -22z"/>
<path d="M230 559 l0 -141 23 6 c12 4 34 9 49 12 l27 6 3 129 3 129 -52 0 -53
0 0 -141z m88 85 l1 -44 -39 0 -39 0 1 44 1 45 37 -1 c37 0 38 0 38 -44z m-13
-91 c-3 -19 -1 -33 5 -33 11 0 8 -57 -3 -65 -4 -3 -5 -2 -3 1 7 9 -15 64 -25
64 -9 0 -25 -48 -21 -67 1 -6 -2 -14 -7 -17 -5 -4 -9 14 -9 39 1 25 5 48 9 51
5 3 6 18 2 35 -5 28 -4 29 26 27 30 -2 31 -4 26 -35z"/>
<path d="M260 670 c-13 -9 -13 -10 0 -10 10 0 11 -3 3 -8 -8 -5 -8 -12 2 -26
8 -10 18 -15 23 -12 13 8 21 55 11 62 -5 3 -9 -5 -10 -18 l-1 -23 -6 22 c-5
17 -11 20 -22 13z"/>
<path d="M297 326 c-4 -9 -1 -16 6 -16 8 0 8 -3 -2 -9 -14 -9 -9 -41 8 -41 5
0 12 11 15 25 4 14 11 25 17 25 6 0 7 5 4 10 -4 6 -11 7 -17 4 -6 -4 -14 -1
-18 6 -5 8 -9 7 -13 -4z"/>
<path d="M2603 240 c-22 -9 -23 -40 -1 -40 5 0 6 5 2 12 -5 7 -2 9 9 5 12 -4
14 -2 10 10 -5 12 -3 14 7 8 9 -5 11 -4 6 3 -4 7 -8 12 -9 11 -1 0 -12 -4 -24
-9z"/>
<path d="M1500 2111 c0 -5 -3 -16 -6 -25 -5 -12 0 -16 18 -16 35 0 41 10 16
31 -24 21 -28 23 -28 10z"/>
<path d="M2814 1822 c-31 -4 -20 -35 17 -49 16 -6 29 -10 29 -8 0 1 -6 16 -12
31 -10 21 -19 28 -34 26z"/>
<path d="M2742 1478 c-19 -19 -14 -37 8 -31 20 5 27 27 12 37 -5 3 -14 0 -20
-6z"/>
<path d="M93 1364 c-12 -25 -11 -26 15 -19 34 8 34 9 26 29 -9 24 -27 19 -41
-10z"/>
<path d="M2624 854 c3 -9 6 -22 6 -30 0 -9 4 -13 8 -10 4 2 14 0 22 -5 13 -9
13 -10 0 -8 -8 1 -28 1 -44 0 -23 -1 -27 -4 -18 -13 19 -19 14 -35 -13 -42
-29 -7 -24 -36 7 -36 11 0 16 -4 12 -11 -3 -6 -15 -9 -25 -6 -11 3 -17 1 -13
-4 3 -5 -2 -9 -10 -9 -9 0 -16 -4 -16 -10 0 -5 22 -10 49 -10 l50 0 -11 -31
c-13 -39 -1 -50 23 -21 17 22 17 25 3 48 -9 13 -20 22 -24 19 -5 -3 -12 0 -16
6 -4 8 3 9 25 4 18 -4 31 -3 31 3 0 13 -33 28 -66 31 -14 1 -14 4 -4 16 10 12
16 13 27 4 11 -9 17 -9 26 0 9 10 7 17 -12 32 l-24 20 26 -5 c15 -2 31 -7 36
-10 5 -3 16 6 26 20 9 14 19 23 22 20 3 -3 0 -12 -6 -20 -9 -10 -9 -16 -1 -21
6 -4 9 -13 6 -21 -3 -8 -1 -14 4 -14 6 0 10 -5 10 -11 0 -5 -4 -8 -9 -4 -5 3
-12 1 -16 -5 -3 -6 4 -11 17 -11 17 -1 18 -3 6 -6 -10 -2 -18 -11 -18 -19 0
-11 5 -10 22 6 29 27 52 26 45 -1 -3 -12 0 -22 9 -26 8 -3 11 -10 7 -16 -4 -6
-1 -7 8 -1 34 20 36 28 15 46 -19 16 -19 17 -3 18 10 0 15 5 12 10 -4 6 -10 8
-15 5 -5 -3 -11 -1 -15 5 -3 5 3 10 14 10 12 0 21 5 21 11 0 16 -29 41 -40 34
-13 -8 -13 1 0 26 8 15 7 19 -4 19 -23 0 -46 -11 -46 -22 0 -6 7 -8 15 -4 19
7 19 -3 1 -23 -9 -10 -11 -23 -6 -36 8 -18 9 -18 10 5 1 23 2 23 10 5 12 -29
12 -31 -10 -32 -21 -2 -22 -1 -25 62 -4 69 -4 69 -18 56 -8 -6 -17 -8 -20 -4
-4 3 -7 -1 -7 -10 0 -9 -5 -17 -11 -17 -6 0 -9 7 -5 15 3 10 -5 20 -24 30 -37
19 -44 19 -36 -1z"/>
<path d="M2700 749 c0 -16 -4 -19 -21 -14 -18 6 -19 5 -7 -14 11 -17 10 -25
-1 -43 -7 -13 -10 -20 -6 -16 5 4 15 2 23 -5 13 -10 15 -7 10 23 -4 23 -1 42
8 55 16 22 18 35 4 35 -5 0 -10 -9 -10 -21z"/>
<path d="M2852 496 c-8 -18 -8 -26 0 -28 7 -3 3 -13 -11 -27 -19 -19 -20 -22
-4 -19 13 2 17 -2 15 -16 -3 -14 1 -17 13 -12 9 3 23 6 31 6 12 0 11 5 -3 26
-9 15 -19 22 -21 15 -2 -6 -8 -11 -13 -11 -15 0 3 31 22 38 17 7 17 8 0 30
l-17 23 -12 -25z"/>
<path d="M2800 385 c-14 -17 -15 -17 23 -33 25 -11 27 -10 18 6 -25 42 -27 44
-41 27z"/>
<path d="M107 333 c-10 -19 15 -74 38 -83 33 -13 33 -48 0 -56 -21 -5 -23 -8
-10 -21 18 -18 5 -48 -25 -58 -27 -9 -45 4 -27 18 11 10 12 16 2 34 l-12 23
-13 -25 c-12 -22 -11 -27 6 -46 14 -15 28 -20 59 -18 22 1 52 -3 67 -9 15 -6
34 -9 41 -6 17 6 20 63 5 81 -14 18 -27 7 -21 -17 6 -22 -12 -28 -20 -7 -3 6
-6 2 -6 -10 -1 -16 4 -20 18 -16 10 3 22 0 25 -6 11 -17 -40 -13 -54 4 -7 8
-9 22 -6 32 4 9 2 20 -4 23 -8 5 -6 9 5 13 11 5 14 3 9 -6 -5 -9 -4 -9 5 -1
10 9 9 18 -3 42 -9 17 -13 37 -11 44 8 20 -58 89 -68 71z m56 -65 c-5 -10 -33
-10 -34 0 0 4 -3 18 -5 32 l-5 25 24 -25 c14 -14 22 -28 20 -32z"/>
<path d="M2820 230 c0 -16 27 -48 33 -39 15 26 27 49 27 51 0 2 -14 3 -30 4
-22 1 -30 -3 -30 -16z"/>
<path d="M490 218 c0 -4 13 -21 29 -37 27 -28 29 -29 34 -9 4 12 10 17 17 13
9 -6 9 -2 1 13 -10 19 -81 37 -81 20z"/>
<path d="M2795 148 c-15 -22 -14 -23 7 -30 44 -12 47 -10 35 22 -14 36 -21 37
-42 8z"/>
<path d="M2273 125 c-9 -20 -8 -25 2 -25 7 0 21 -3 30 -6 13 -6 16 -1 13 22
-4 37 -29 42 -45 9z"/>
</g>
</svg>
