<?xml version="1.0" standalone="no"?>
<!DOCTYPE svg PUBLIC "-//W3C//DTD SVG 20010904//EN"
 "http://www.w3.org/TR/2001/REC-SVG-20010904/DTD/svg10.dtd">
<svg version="1.0" xmlns="http://www.w3.org/2000/svg"
 width="300.000000pt" height="233.000000pt" viewBox="0 0 300.000000 233.000000"
 preserveAspectRatio="xMidYMid meet">
<metadata>
Created by potrace 1.10, written by Peter Selinger 2001-2011
</metadata>
<g transform="translate(0.000000,233.000000) scale(0.100000,-0.100000)"
fill="#000000" stroke="none">
<path d="M2004 2306 c-3 -9 -12 -16 -20 -16 -18 0 -34 -32 -34 -69 0 -20 -7
-34 -20 -41 -11 -6 -20 -16 -20 -22 0 -6 11 -3 26 7 24 16 27 16 45 0 23 -22
103 -22 124 -1 13 12 12 16 -8 28 -30 19 -57 29 -57 20 0 -4 -12 -8 -26 -9
-19 -1 -23 2 -15 10 6 6 37 12 69 12 60 1 115 23 126 50 9 25 8 28 -11 20 -10
-4 -32 -7 -50 -6 -21 1 -40 -6 -53 -19 -11 -11 -33 -25 -47 -31 -26 -10 -26
-9 -10 9 24 26 26 65 4 70 -9 2 -20 -4 -23 -12z m9 -44 c-46 -41 -52 -45 -46
-23 3 10 16 22 29 25 13 4 24 14 25 24 0 11 2 13 6 4 3 -8 -3 -21 -14 -30z
m72 -92 c-7 -12 -52 -12 -80 0 -15 6 -6 9 33 9 33 1 51 -3 47 -9z"/>
<path d="M2319 2312 c-1 -4 -1 -11 0 -16 1 -4 -5 -19 -14 -32 -12 -18 -13 -29
-5 -44 9 -17 8 -20 -9 -20 -11 0 -21 -6 -24 -12 -4 -10 -7 -10 -18 0 -21 20
-67 15 -79 -9 -14 -25 -6 -49 15 -49 28 0 15 -32 -32 -78 -39 -39 -45 -42 -39
-22 18 60 18 68 -2 79 -29 15 -70 -2 -78 -33 -6 -27 -29 -36 -92 -36 -48 0
-107 23 -116 46 -4 11 4 14 34 14 21 0 41 -4 44 -9 3 -5 23 -11 45 -13 30 -2
42 1 51 16 15 23 4 34 -40 41 l-35 6 25 -15 c23 -14 23 -15 5 -17 -14 -1 -11
-4 10 -9 l30 -8 -30 -1 c-32 -1 -85 32 -68 42 14 9 0 85 -19 103 -21 22 -68
28 -68 10 0 -8 8 -20 18 -25 9 -6 11 -11 5 -11 -7 0 -13 -6 -13 -14 0 -12 -40
-46 -55 -46 -3 0 -5 11 -5 25 0 20 -5 25 -25 25 -15 0 -25 6 -25 15 0 9 6 12
15 9 11 -5 14 -1 9 12 -5 18 -5 18 10 0 18 -23 31 -15 31 20 1 21 -3 24 -37
22 -21 -1 -38 -4 -38 -7 0 -3 -11 -7 -25 -7 -14 -1 -25 3 -25 10 0 22 -47 35
-74 21 -21 -11 -27 -11 -37 1 -16 19 -69 19 -69 -1 0 -17 -16 -20 -26 -4 -3 6
-14 9 -24 6 -10 -2 -24 -1 -31 3 -7 5 -26 2 -43 -8 -17 -9 -36 -15 -43 -14
-16 3 -53 -29 -46 -41 3 -5 -8 -2 -24 6 -39 21 -70 4 -47 -24 7 -8 9 -29 7
-47 -4 -26 -11 -34 -37 -40 -24 -7 -32 -5 -37 7 -4 10 -8 11 -13 3 -4 -7 -13
-12 -19 -12 -8 0 -8 3 -2 8 6 4 10 16 10 27 0 11 7 20 15 21 8 1 25 2 38 2 17
2 22 8 22 27 0 23 -2 25 -22 14 -22 -12 -22 -12 -3 -21 15 -6 12 -7 -11 -4
-34 5 -54 -8 -54 -36 0 -29 -18 -20 -25 12 -5 24 -14 32 -36 37 -16 3 -26 9
-24 14 12 18 -16 18 -35 -1 -20 -20 -28 -46 -11 -35 11 6 26 -13 17 -22 -3 -4
-14 2 -25 11 -10 10 -33 18 -49 18 -17 1 -31 4 -30 7 6 31 -58 78 -112 82 -53
4 -90 0 -90 -9 0 -13 50 -33 62 -26 7 4 8 2 4 -4 -4 -7 -1 -12 8 -12 10 0 13
6 9 18 -5 14 -4 15 8 6 8 -7 23 -14 34 -17 19 -4 19 -5 -2 -6 -29 -1 -20 -32
19 -61 27 -20 36 -22 74 -13 27 6 48 6 60 0 15 -8 13 -11 -15 -23 -40 -17 -33
-30 19 -39 46 -8 91 2 69 16 -21 12 -4 22 18 10 10 -6 36 -17 57 -24 22 -8 41
-18 43 -24 2 -6 -16 -19 -41 -28 -62 -24 -138 -16 -174 17 -15 13 -37 25 -49
26 -27 1 -31 -13 -7 -22 9 -4 14 -9 11 -13 -4 -3 -2 -12 4 -19 22 -26 -9 -22
-44 7 -31 26 -35 33 -27 54 16 43 -8 84 -45 75 -5 -1 -17 -3 -25 -3 -8 0 -17
-4 -20 -8 -3 -5 -22 -1 -42 9 -31 15 -35 21 -31 44 7 37 -12 58 -53 58 -32 0
-33 -1 -28 -30 5 -24 0 -37 -25 -65 -36 -41 -40 -81 -12 -113 22 -26 57 -28
83 -5 17 15 18 14 18 -28 0 -61 -40 -143 -82 -169 -41 -25 -63 -25 -94 -1 -31
25 -77 15 -82 -17 -2 -12 1 -22 7 -22 6 0 11 10 11 23 0 17 2 19 9 8 8 -12 13
-12 24 -3 12 10 16 9 21 -3 9 -24 75 -19 117 9 38 26 99 128 99 165 0 12 4 19
10 16 6 -3 10 -1 10 6 0 20 -73 79 -97 79 -26 0 -32 25 -8 34 24 9 65 -12 75
-39 11 -30 25 -34 17 -5 -3 11 -1 23 4 26 6 3 5 12 -2 22 -9 11 -6 11 7 -2 13
-13 15 -20 7 -23 -17 -6 2 -43 22 -43 8 0 15 -4 15 -10 0 -14 -23 -13 -38 2
-7 7 -12 8 -12 2 0 -5 5 -15 11 -21 7 -7 10 -35 7 -72 -3 -46 -1 -61 9 -61 8
0 13 12 13 29 0 16 5 31 11 33 9 3 9 10 0 27 -21 38 3 50 33 18 15 -16 36 -27
51 -27 14 0 25 -5 25 -11 0 -5 4 -8 9 -5 5 3 37 7 72 7 60 2 62 3 32 13 -36
12 -60 32 -51 42 4 3 19 -3 35 -14 15 -11 44 -23 64 -26 44 -8 123 16 158 48
22 19 24 19 17 2 -5 -15 -4 -17 8 -7 9 8 16 8 20 2 8 -12 -4 -19 -26 -16 -10
2 -18 -1 -18 -6 0 -5 -3 -8 -7 -8 -5 1 -15 1 -23 0 -13 -1 -13 -2 0 -12 12 -8
10 -9 -7 -4 -14 4 -23 2 -23 -4 0 -6 -8 -10 -17 -9 -10 1 -36 0 -58 -1 -36 -3
-38 -4 -15 -12 17 -6 9 -7 -26 -3 -32 4 -54 1 -59 -5 -4 -8 15 -11 59 -11 75
0 166 19 173 36 2 6 12 10 23 7 10 -3 21 0 24 6 4 6 19 11 34 11 32 0 46 9 55
32 5 13 0 19 -19 24 -35 9 -54 -11 -28 -31 10 -8 14 -15 7 -15 -19 0 -45 31
-39 47 3 8 6 19 6 24 0 6 5 7 10 4 6 -4 9 -1 8 7 -2 9 11 13 46 13 55 1 64 11
44 49 l-13 25 -25 -20 -25 -19 24 3 c13 1 26 -3 28 -9 2 -7 -11 -13 -32 -16
-19 -2 -35 0 -35 5 0 5 -8 3 -17 -4 -16 -13 -17 -12 -5 3 8 10 20 14 29 11 11
-4 14 -2 9 5 -10 16 30 52 58 52 16 0 27 7 31 20 6 20 28 22 54 5 10 -5 16 -4
19 3 2 7 11 12 19 12 10 0 13 -6 9 -16 -3 -9 -6 -21 -6 -27 0 -7 -4 -6 -10 3
-5 8 -12 11 -16 7 -4 -4 -12 1 -19 10 -11 14 -12 14 -18 0 -3 -8 3 -26 14 -38
11 -13 17 -29 14 -36 -4 -11 9 -13 63 -10 37 2 75 0 85 -5 20 -10 57 6 57 26
0 15 29 30 39 21 3 -3 -1 -10 -8 -14 -14 -9 -4 -22 50 -65 16 -12 20 -20 12
-23 -31 -11 -6 -63 30 -63 14 0 17 5 13 23 -3 12 -3 16 0 10 4 -9 11 -10 24
-3 13 7 21 7 25 0 3 -5 -3 -10 -14 -10 -15 0 -19 -4 -14 -17 5 -12 3 -14 -7
-8 -8 5 -11 3 -8 -6 3 -8 11 -14 19 -14 8 0 20 -4 28 -9 7 -5 30 -10 50 -11
79 -5 198 -29 225 -46 33 -20 56 -15 56 11 0 28 -63 54 -103 42 -38 -12 -77
-11 -77 1 0 4 -5 5 -10 2 -6 -4 -17 -1 -25 5 -8 7 -20 10 -27 8 -7 -3 -21 4
-32 14 -22 20 -41 24 -30 6 4 -7 3 -8 -4 -4 -7 4 -12 2 -12 -4 0 -6 -5 -8 -10
-5 -8 5 -8 11 0 20 11 13 4 45 -11 45 -22 0 0 45 24 51 31 8 33 6 11 -16 -22
-22 -6 -58 37 -81 34 -17 115 -23 164 -12 l30 7 -30 -14 c-16 -8 -23 -14 -14
-15 27 0 71 41 66 61 -6 21 8 26 16 7 4 -10 8 -9 16 2 9 13 11 13 11 -1 0 -9
-11 -28 -25 -41 l-25 -25 31 -7 c19 -4 33 -13 36 -26 3 -11 10 -20 15 -20 6 0
8 10 4 23 -4 19 0 25 28 35 18 7 41 21 51 32 10 11 21 20 26 20 9 0 5 -59 -6
-84 -7 -16 -5 -18 8 -13 13 5 16 0 14 -28 -1 -19 2 -33 8 -32 5 1 12 -11 15
-28 4 -20 11 -30 23 -29 9 1 17 -2 17 -7 0 -5 -4 -9 -10 -9 -5 0 -10 -5 -10
-11 0 -6 8 -8 19 -4 25 8 41 -20 41 -69 0 -55 16 -43 19 14 1 30 -2 50 -9 50
-5 0 -10 5 -10 10 0 15 27 12 44 -6 12 -12 13 -20 6 -35 -8 -14 -7 -19 1 -19
8 0 8 -4 -1 -15 -7 -8 -10 -22 -6 -30 3 -9 2 -13 -4 -10 -6 3 -10 -1 -10 -9 0
-19 19 -21 25 -3 4 10 11 57 14 90 1 4 12 0 26 -9 14 -9 25 -12 25 -8 0 5 4 3
9 -4 4 -7 18 -14 29 -15 12 -1 22 -5 22 -10 0 -4 5 -5 10 -2 6 3 10 1 10 -5 0
-8 -7 -9 -17 -5 -10 4 -31 12 -48 17 -16 6 -36 15 -42 21 -9 6 -13 6 -13 -2 0
-15 98 -61 116 -54 8 3 14 0 14 -6 0 -7 22 -11 55 -11 55 0 55 0 44 -22 -21
-38 -28 -98 -13 -98 7 0 16 5 19 10 4 6 11 8 16 5 5 -3 7 0 4 7 -2 7 -6 34 -8
59 -4 33 -1 46 9 46 9 0 10 -5 3 -19 -6 -12 -6 -18 1 -18 5 0 10 7 10 15 0 8
6 15 13 15 8 0 7 4 -3 11 -11 8 -6 9 20 5 28 -5 31 -4 15 4 -15 8 -8 9 30 6
44 -4 48 -3 30 10 -22 16 -3 19 26 4 24 -13 25 -28 2 -26 -10 0 -19 -7 -21
-19 -2 -16 -1 -17 7 -5 9 12 11 9 11 -12 0 -21 -5 -28 -20 -28 -17 0 -20 5
-16 34 3 28 1 34 -10 29 -9 -3 -13 -12 -10 -19 3 -9 -1 -14 -12 -14 -29 -1
-51 -25 -54 -58 -1 -18 -6 -32 -10 -32 -4 0 -8 -8 -8 -17 0 -14 -2 -15 -9 -4
-7 11 -11 9 -20 -8 -7 -12 -16 -19 -22 -16 -5 4 -7 11 -4 16 4 5 1 9 -4 9 -6
0 -11 -10 -11 -21 0 -16 5 -20 20 -16 26 7 34 -27 30 -143 -1 -54 7 -95 21
-98 8 -1 20 -12 27 -23 11 -18 11 -23 -4 -34 -17 -12 -16 -14 10 -39 l28 -26
-23 -9 c-26 -10 -78 -70 -97 -114 -14 -32 -16 -97 -3 -97 4 0 11 25 14 56 3
31 10 61 15 66 12 12 10 -41 -2 -60 -4 -7 -5 -16 -2 -19 3 -3 13 11 22 33 9
21 24 44 35 52 12 9 17 22 14 43 -3 25 -1 28 11 18 8 -6 14 -19 14 -28 0 -9 5
-22 11 -28 8 -8 7 -13 -2 -18 -8 -6 -10 -4 -4 6 4 8 -4 1 -18 -16 -15 -18 -21
-32 -15 -36 6 -4 1 -10 -11 -14 -18 -5 -20 -10 -10 -21 6 -7 16 -11 22 -7 6 3
7 1 3 -6 -6 -9 -11 -9 -21 -1 -10 9 -19 6 -35 -10 -24 -24 -24 -25 7 -34 28
-9 70 43 50 63 -9 10 -8 11 6 6 16 -7 20 2 16 31 -2 14 26 23 34 11 5 -7 7 -3
3 12 -2 13 -2 20 3 15 8 -10 79 -102 93 -121 5 -6 5 -14 0 -17 -6 -3 -26 18
-47 48 -42 61 -66 67 -70 16 -2 -18 -7 -35 -11 -39 -5 -3 -10 -44 -12 -91 -1
-48 -7 -87 -14 -91 -7 -4 -8 -17 -3 -35 5 -16 7 -33 6 -38 -1 -5 4 -13 11 -17
8 -5 12 -33 11 -91 -1 -56 1 -75 7 -58 7 21 8 18 9 -20 0 -32 -2 -41 -9 -30
-7 11 -10 -4 -10 -50 0 -103 4 -110 59 -110 l46 0 -3 172 c-2 110 1 175 8 182
5 5 10 30 10 54 l0 44 -60 -6 c-38 -3 -58 -1 -55 4 4 6 15 10 26 10 16 0 19 7
19 41 0 22 -3 38 -7 36 -5 -3 -8 14 -8 38 0 24 3 41 6 39 4 -2 10 2 12 8 3 8
18 -2 40 -27 l35 -40 12 29 c14 37 13 39 -51 115 -38 46 -54 74 -56 98 -2 29
0 33 12 23 7 -6 17 -24 20 -40 7 -31 60 -110 74 -110 18 0 20 32 5 56 -9 13
-14 27 -11 31 4 3 -5 19 -18 35 -14 16 -25 34 -25 39 0 5 -10 14 -22 20 -60
27 -67 34 -52 54 17 23 19 44 3 28 -9 -9 -17 -6 -30 12 -21 26 -25 40 -7 29 7
-4 8 -3 4 5 -4 6 -13 8 -19 5 -8 -5 -8 -3 1 7 20 22 14 34 -8 14 -11 -10 -20
-13 -20 -7 0 7 4 12 9 12 5 0 7 9 4 20 -3 11 0 20 6 20 6 0 11 -4 11 -10 0 -5
5 -10 10 -10 6 0 1 18 -10 40 -11 22 -19 54 -18 74 3 29 6 34 28 33 33 -2 41
37 11 53 -28 14 -28 70 -2 94 19 17 21 17 50 -5 26 -19 31 -30 31 -63 0 -46
-7 -59 -32 -69 -22 -8 -24 -54 -3 -59 12 -2 11 -9 -7 -36 l-21 -33 -21 41
c-11 23 -22 37 -24 31 -2 -5 4 -21 12 -34 9 -13 13 -27 10 -30 -4 -4 0 -9 8
-12 11 -5 13 -16 8 -50 -7 -46 1 -72 18 -61 13 8 43 -34 35 -47 -4 -6 -10 -2
-14 9 -7 17 -8 17 -8 -4 -1 -17 4 -22 17 -20 11 3 16 12 15 30 -1 21 2 25 18
21 13 -4 19 0 19 11 0 9 -5 16 -11 16 -5 0 -8 4 -4 9 3 6 -4 15 -15 21 -17 9
-20 19 -17 50 4 42 17 67 17 33 0 -15 7 -20 31 -21 27 -1 30 2 24 21 -8 26 -8
20 0 122 6 65 4 84 -9 100 -16 19 -16 19 -10 -6 8 -35 -12 -47 -21 -12 -6 26
6 43 32 43 24 0 8 66 -24 104 -18 20 -37 36 -43 36 -5 0 -10 9 -10 20 0 11 5
20 10 20 6 0 20 16 31 35 23 39 31 42 53 19 15 -14 17 -14 23 2 10 28 -37 62
-82 59 -44 -3 -67 -33 -56 -74 4 -14 5 -38 3 -53 -4 -29 -44 -78 -64 -78 -7 1
-3 9 10 19 12 11 22 23 22 27 0 4 -9 -1 -20 -11 -11 -10 -20 -13 -20 -7 0 7 5
12 11 12 5 0 7 5 3 12 -4 7 -3 8 4 4 8 -5 12 2 12 19 0 17 4 24 12 19 7 -5 8
-3 3 5 -4 7 -20 18 -36 25 -27 11 -28 13 -13 32 8 10 13 13 9 7 -3 -8 0 -13 8
-13 8 0 20 -7 27 -15 7 -9 15 -13 18 -10 3 3 -3 15 -14 27 -19 21 -19 21 1 15
20 -7 20 -7 1 8 -21 16 -62 11 -85 -10 -19 -18 -7 -61 19 -68 33 -8 23 -37
-17 -54 -25 -10 -53 -13 -85 -10 -58 7 -164 49 -161 64 2 11 -52 29 -70 25 -4
-1 -10 5 -13 13 -4 8 -13 15 -21 15 -10 0 -13 6 -9 16 4 9 3 22 -2 28 -14 18
-32 91 -32 128 0 24 8 42 25 58 21 19 25 21 25 7 0 -9 6 -17 14 -17 8 0 16 -5
18 -12 7 -21 55 0 68 31 14 35 5 91 -16 91 -8 0 -14 5 -14 10 0 6 -11 15 -24
21 -22 10 -23 13 -10 37 7 14 11 28 9 30 -8 8 -65 12 -66 4z m-803 -44 c-2
-18 -1 -23 1 -10 2 12 9 22 15 22 5 0 8 -7 4 -15 -3 -8 -1 -15 5 -15 6 0 3 -7
-5 -16 -9 -8 -20 -12 -26 -9 -13 8 -13 75 -1 75 6 0 8 -15 7 -32z m114 -4 c0
-8 -10 -14 -25 -14 -22 0 -24 2 -13 19 13 21 38 17 38 -5z m-150 -25 c0 -23
-16 -25 -24 -3 -10 25 -7 34 9 28 8 -4 15 -15 15 -25z m910 -28 c0 -12 -23
-31 -37 -31 -7 0 -13 5 -13 10 0 6 10 10 22 10 l22 0 -22 16 c-30 21 -28 38 3
18 14 -9 25 -19 25 -23z m-1779 5 c-6 -7 -8 -16 -4 -19 3 -4 -5 -7 -18 -7 -13
0 -19 4 -13 8 6 4 13 15 17 25 4 10 12 15 17 12 8 -5 8 -11 1 -19z m979 13 c0
-4 -9 -11 -20 -14 -11 -3 -20 -13 -20 -21 0 -8 -4 -14 -10 -14 -15 0 -12 26 4
43 15 15 46 19 46 6z m104 -15 c-1 -5 6 -14 15 -21 9 -6 12 -15 8 -19 -4 -5
-11 -3 -15 3 -4 6 -23 20 -42 32 l-35 21 35 -4 c19 -2 35 -7 34 -12z m-702 -8
c7 4 8 2 4 -4 -4 -6 2 -19 14 -29 26 -22 26 -33 -1 -26 -11 3 -25 17 -30 30
-9 25 -12 59 -2 35 2 -6 10 -9 15 -6z m879 0 c-8 -10 -9 -16 -1 -21 5 -3 10
-13 10 -21 0 -10 -6 -8 -21 7 -20 20 -20 21 -2 34 23 18 28 19 14 1z m-1017
-9 c14 -8 23 -17 19 -20 -10 -11 -43 -8 -43 4 0 5 -4 8 -9 5 -5 -3 -11 1 -15
9 -7 19 13 19 48 2z m655 -2 c-3 -9 -22 -10 -86 -6 -7 1 -13 5 -13 11 0 5 23
8 52 7 29 -1 49 -6 47 -12z m175 -14 c7 -11 -22 -23 -35 -15 -5 3 -9 9 -9 15
0 12 37 12 44 0z m528 2 c-9 -3 -5 -12 14 -29 21 -20 25 -30 19 -52 -7 -28
-35 -65 -43 -57 -3 2 1 11 8 20 7 8 10 26 7 41 -3 20 -1 24 12 19 9 -3 4 6
-11 20 -32 30 -36 45 -10 44 11 0 12 -2 4 -6z m218 -31 c0 -21 -2 -24 -10 -12
-9 13 -10 13 -10 0 0 -13 -1 -13 -10 0 -11 17 -13 10 -4 -14 3 -9 11 -13 17
-9 6 3 7 1 3 -5 -11 -18 -39 -15 -32 3 3 10 -1 15 -12 15 -13 0 -14 2 -3 9 7
5 10 14 6 20 -5 8 2 10 22 6 15 -3 22 -2 15 1 -6 3 -10 10 -6 15 10 16 24 -1
24 -29z m-1640 8 c0 -4 -11 -12 -25 -18 -20 -9 -25 -9 -25 2 0 14 14 23 38 23
6 0 12 -3 12 -7z m952 -17 c17 -22 18 -45 1 -50 -8 -3 -13 4 -13 16 0 12 -5
21 -11 21 -5 0 -8 4 -5 9 4 5 0 12 -6 14 -9 4 -7 6 3 6 9 1 23 -7 31 -16z
m-752 -19 c0 -8 -9 -14 -20 -14 -22 0 -28 26 -7 33 16 6 27 -1 27 -19z m-209
-22 c-18 -6 -13 -21 16 -48 l28 -26 -30 7 c-31 8 -60 35 -47 44 4 3 7 12 8 19
3 33 4 34 20 21 10 -8 12 -15 5 -17z m1303 -118 c17 -7 22 -34 7 -34 -21 0
-41 13 -41 26 0 15 10 17 34 8z m756 -118 c-10 -27 -40 -34 -40 -9 0 14 2 15
9 5 6 -10 10 -4 15 20 5 24 9 29 15 19 5 -8 6 -24 1 -35z m-239 -125 c8 12 11
11 19 -1 5 -8 10 -10 10 -5 0 6 20 11 43 12 33 1 44 -2 44 -13 0 -8 -6 -13
-13 -10 -7 3 -14 1 -16 -3 -2 -5 -27 -6 -55 -4 -41 4 -53 9 -52 22 0 12 2 12
6 2 5 -11 7 -11 14 0z m159 -223 c0 -23 -12 -23 -34 1 -9 10 -14 25 -10 35 6
16 8 16 25 0 11 -9 19 -25 19 -36z m117 -64 c-1 -35 -7 -66 -12 -68 -11 -4
-11 12 -1 99 5 45 4 47 -5 18 -6 -17 -20 -34 -30 -36 -23 -6 -36 11 -15 19 8
3 22 22 32 42 16 35 17 35 25 13 5 -12 8 -51 6 -87z m-46 -28 c-31 -33 -39
-91 -16 -116 10 -11 14 -20 9 -20 -5 0 -2 -5 6 -10 20 -13 -5 -14 -29 0 -29
15 -21 89 14 140 15 22 30 38 33 35 3 -3 -5 -16 -17 -29z m24 -296 c-8 -13 6
-40 18 -33 6 4 8 0 4 -10 -3 -9 0 -23 8 -31 17 -17 20 -40 4 -30 -12 7 -48 83
-54 115 -4 17 -2 19 10 9 8 -7 13 -16 10 -20z m-8 -395 c3 -9 3 -18 0 -21 -10
-10 -44 6 -44 21 0 20 36 19 44 0z m10 -117 c-3 -35 -8 -72 -13 -82 -4 -11 -4
-17 2 -14 5 4 7 -33 4 -90 -4 -68 -9 -97 -18 -100 -11 -3 -13 8 -12 49 5 105
0 230 -8 225 -5 -3 -9 2 -9 11 0 12 5 11 19 -7 l18 -22 1 38 c1 22 1 42 0 47
0 4 4 7 10 7 8 0 10 -19 6 -62z"/>
<path d="M2607 2293 c-4 -3 -2 -12 4 -20 9 -10 7 -13 -7 -13 -18 -1 -18 -1 -1
-14 9 -7 17 -18 17 -23 0 -6 13 -10 29 -11 22 0 30 5 35 21 8 31 7 39 -4 32
-5 -3 -10 4 -10 16 0 18 -2 19 -15 9 -10 -9 -15 -9 -15 -1 0 12 -23 15 -33 4z"/>
<path d="M850 2275 c0 -15 42 -65 51 -59 5 3 7 9 4 14 -3 4 2 11 11 14 21 8
26 8 20 -2 -3 -5 2 -9 10 -9 12 0 12 4 -4 19 -18 19 -92 37 -92 23z"/>
<path d="M216 2229 c-19 -8 -45 -24 -57 -34 -24 -22 -52 -83 -43 -96 3 -5 0
-9 -5 -9 -14 0 -14 -45 -1 -71 6 -10 18 -19 26 -19 8 0 12 5 9 10 -3 6 0 10 7
11 7 1 2 4 -12 9 -21 6 -17 7 18 8 45 0 56 -12 20 -22 -21 -6 -22 -7 -5 -17
14 -8 15 -14 7 -24 -15 -19 10 -14 41 7 28 19 20 35 -10 19 -11 -6 -22 -7 -25
-2 -3 4 6 13 20 20 20 9 24 15 15 25 -6 7 -21 11 -34 9 -12 -2 -35 2 -51 10
-23 13 -25 16 -9 19 10 3 26 -2 35 -10 21 -18 58 -7 58 17 0 10 9 26 20 36 11
10 17 22 14 26 -3 5 -1 16 4 26 8 14 11 11 16 -14 4 -16 13 -30 21 -30 8 0 12
3 10 6 -2 4 3 15 11 26 13 18 14 17 14 -12 0 -28 -4 -32 -32 -35 -32 -3 -79
-51 -63 -65 4 -5 10 -3 12 3 2 6 15 9 29 6 24 -4 25 -3 15 17 -10 17 -9 22 4
27 9 4 18 4 21 2 8 -8 -8 -68 -17 -62 -5 3 -9 0 -9 -5 0 -22 30 -10 31 12 0
12 3 16 6 9 4 -10 8 -10 19 -1 8 7 18 9 21 5 4 -4 2 -11 -6 -15 -7 -5 -12 -11
-12 -15 3 -19 -2 -22 -36 -20 l-38 3 35 -8 c28 -6 31 -9 17 -15 -9 -5 -29 -5
-43 -2 -19 5 -24 11 -19 25 7 24 -13 39 -21 16 -4 -9 1 -24 11 -35 10 -11 15
-23 12 -27 -4 -3 -7 -1 -7 5 0 6 -7 9 -15 6 -8 -4 -15 -14 -15 -24 0 -10 -7
-23 -15 -30 -14 -12 -19 -7 -16 13 1 5 -3 6 -9 2 -8 -5 -8 -11 1 -21 6 -7 15
-11 20 -8 5 3 9 -2 9 -10 0 -22 -12 -20 -44 5 -15 11 -34 18 -42 15 -9 -3 -27
3 -41 14 -14 11 -39 20 -54 20 -23 0 -29 -4 -29 -23 0 -12 9 -28 19 -34 22
-14 46 -59 56 -103 4 -16 14 -34 23 -40 12 -7 14 -12 5 -18 -6 -4 -15 -21 -18
-37 -14 -68 -17 -105 -9 -105 5 0 9 -41 8 -91 0 -90 0 -90 23 -84 22 5 24 3
18 -27 -5 -28 -1 -39 25 -67 22 -23 29 -39 24 -53 -3 -11 -7 -30 -8 -43 -2
-12 -13 -39 -25 -58 -23 -37 -36 -97 -21 -97 5 0 23 23 41 51 30 45 34 48 41
29 5 -15 2 -26 -13 -41 -11 -11 -17 -24 -14 -29 3 -5 1 -11 -5 -15 -6 -3 -19
-24 -30 -46 -13 -24 -27 -39 -39 -39 -16 0 -31 -18 -31 -36 0 -2 25 -4 55 -4
62 0 64 -4 40 -66 -26 -65 -38 -84 -52 -84 -16 0 -16 -5 -2 -31 6 -11 12 -30
14 -41 3 -12 10 -25 16 -29 8 -4 13 -65 17 -178 l5 -171 -32 -6 c-37 -8 -49
-22 -27 -30 9 -3 16 -16 16 -28 -1 -21 -1 -21 -16 -1 -14 19 -15 19 -12 -5 2
-21 -2 -25 -22 -26 -42 -2 -43 -3 -26 -29 21 -32 21 -75 0 -75 -11 0 -14 -6
-8 -22 4 -13 11 -26 16 -29 7 -4 6 -8 -1 -10 -7 -3 -7 -12 2 -29 11 -21 20
-25 55 -25 23 0 42 -3 42 -8 0 -4 23 -5 50 -3 28 3 48 1 46 -3 -3 -4 39 -9 93
-10 85 -1 101 1 123 19 29 22 46 25 68 9 11 -8 7 -9 -18 -5 -17 3 -32 1 -32
-4 0 -4 19 -7 43 -4 23 2 61 5 84 7 35 2 49 10 81 45 40 43 40 43 103 40 57
-3 64 -5 78 -32 9 -16 20 -28 24 -27 4 0 16 1 27 1 25 0 37 27 21 43 -9 9 -11
8 -6 -6 4 -9 3 -17 -3 -17 -6 0 -14 9 -17 20 -3 11 -15 20 -25 20 -28 0 -51
11 -44 21 3 5 10 9 15 9 6 0 8 -3 6 -7 -3 -5 5 -9 16 -9 43 -3 71 -14 96 -38
23 -22 35 -25 96 -24 47 1 62 4 45 9 -16 4 -19 7 -7 8 9 1 17 5 17 10 0 5 3
16 6 25 4 11 0 16 -14 16 -12 0 -24 4 -27 10 -8 13 -75 7 -84 -8 -11 -19 -81
1 -81 24 0 8 -4 14 -10 14 -5 0 -7 -6 -4 -13 3 -10 -6 -14 -33 -14 -76 -1
-113 -6 -113 -17 0 -6 -4 -5 -9 2 -7 11 -15 11 -45 -2 -20 -8 -36 -18 -36 -21
0 -3 5 -3 11 1 7 4 1 -7 -12 -25 -27 -37 -38 -42 -15 -7 12 18 12 26 3 29 -9
4 -8 8 3 17 13 9 12 11 -5 8 -12 -2 -19 -10 -17 -21 2 -9 -2 -17 -7 -17 -16 0
-51 42 -44 53 4 7 9 4 12 -5 5 -11 12 -13 29 -7 31 12 27 35 -8 48 -18 6 -28
6 -25 1 4 -6 -4 -9 -16 -7 -13 2 -25 10 -27 17 -3 7 0 10 7 6 6 -4 11 -2 11 3
0 14 -11 14 -44 1 -16 -6 -27 -6 -31 0 -4 6 -11 10 -17 10 -7 0 -7 -5 1 -14 9
-11 5 -20 -19 -45 -18 -17 -33 -31 -36 -31 -2 0 -4 11 -4 25 0 14 4 25 10 25
5 0 7 -8 4 -17 -4 -13 0 -12 15 6 12 12 18 27 15 32 -9 15 -40 -8 -64 -46 -12
-19 -23 -35 -25 -35 -2 0 -2 17 0 38 1 20 3 43 4 50 1 6 6 12 11 12 7 0 7 -6
0 -19 -16 -30 -12 -36 10 -16 11 10 17 22 13 28 -3 5 -1 7 4 4 6 -4 14 0 17 9
3 8 14 14 23 13 36 -3 49 2 28 11 -17 7 -16 9 10 9 17 1 36 -4 41 -9 6 -6 27
-19 48 -30 35 -18 37 -18 22 -1 -14 16 -15 19 -3 24 9 3 21 -7 32 -27 12 -23
24 -32 35 -29 11 3 19 -3 23 -16 3 -12 10 -21 16 -21 6 0 8 8 5 18 -4 11 -3
13 3 5 5 -7 14 -9 22 -3 8 4 21 6 29 2 11 -4 13 -2 7 9 -7 12 -6 12 7 1 10 -8
32 -11 58 -8 59 6 65 19 8 15 -27 -3 -48 0 -48 5 0 8 -29 3 -62 -9 -21 -8 -65
29 -48 40 9 6 11 4 5 -5 -6 -10 -4 -12 8 -7 10 4 17 1 17 -6 0 -8 2 -9 8 -1 4
6 15 10 24 9 9 -2 19 4 22 12 8 19 47 13 104 -15 30 -14 50 -17 83 -12 24 4
36 8 27 9 -9 0 -19 5 -23 10 -3 6 7 6 27 0 40 -11 38 -11 38 0 0 5 -18 12 -40
16 -22 4 -38 10 -35 15 3 4 -5 5 -17 2 -19 -5 -20 -7 -5 -10 9 -2 17 -8 17
-13 0 -15 -33 -24 -38 -11 -2 7 -8 10 -13 7 -4 -3 -23 2 -41 11 l-33 17 30 13
c36 16 58 18 50 4 -8 -13 1 -13 26 1 15 8 24 7 35 -2 8 -6 17 -10 19 -7 3 3
-1 11 -9 17 -24 20 -97 16 -143 -7 -23 -12 -49 -22 -58 -22 -9 0 -14 -4 -11
-9 3 -5 -9 -7 -27 -6 -49 4 -49 4 -42 15 5 8 11 7 21 -1 11 -9 14 -7 14 10 0
14 -4 20 -12 15 -6 -4 -8 -3 -5 3 7 11 64 27 86 24 7 -1 10 2 6 8 -18 31 -107
-4 -124 -48 -26 -72 -24 -68 -28 -48 -10 42 -41 58 -119 63 -61 4 -76 2 -80
-11 -4 -8 -12 -15 -20 -15 -8 0 -14 -4 -14 -8 0 -17 -33 -8 -37 9 -3 10 -18
22 -34 28 -17 6 -29 17 -29 27 0 13 -3 15 -10 8 -16 -16 0 -95 24 -119 19 -19
31 -85 15 -85 -27 0 -66 93 -70 170 -2 32 -2 32 -6 7 -3 -19 -9 -27 -18 -23
-8 3 -17 1 -20 -4 -4 -6 3 -10 14 -10 14 0 20 -6 19 -17 -3 -35 2 -54 12 -48
5 3 10 1 10 -4 0 -6 -5 -11 -10 -11 -14 0 -8 -44 9 -64 7 -9 17 -13 22 -10 5
3 9 1 9 -4 0 -6 -8 -13 -17 -16 -10 -4 -14 -4 -10 0 4 4 -2 13 -13 21 -11 8
-20 24 -20 36 0 18 -2 19 -10 7 -9 -13 -11 -13 -20 0 -6 8 -8 24 -5 36 3 13 0
21 -8 21 -8 0 -12 -10 -11 -21 1 -12 3 -26 3 -33 1 -6 9 -19 18 -29 16 -16 16
-16 -4 -10 -14 5 -23 2 -27 -10 -4 -11 -2 -15 7 -11 8 3 33 -4 57 -14 24 -11
66 -20 94 -21 28 0 60 -4 71 -9 18 -7 18 -8 -5 -10 -14 -1 -32 -2 -40 -1 -8 1
-36 3 -62 5 -26 2 -54 10 -62 16 -8 7 -20 10 -26 6 -5 -3 -10 2 -10 12 0 13
-3 14 -8 6 -6 -10 -12 -10 -28 2 -13 10 -14 14 -5 15 11 0 11 3 0 17 -12 15
-12 16 3 10 24 -8 23 4 -2 36 -11 14 -20 30 -20 35 0 6 -6 13 -12 15 -10 4
-10 6 -1 6 6 1 19 -9 27 -21 9 -12 19 -19 22 -15 4 4 1 15 -7 24 -7 10 -10 15
-5 11 5 -4 17 -3 27 2 14 8 21 5 33 -12 12 -16 16 -18 16 -7 0 19 -37 40 -65
38 -54 -5 -63 0 -63 36 0 19 4 35 10 35 5 0 6 5 2 12 -4 6 -3 9 2 6 5 -3 18
-2 29 3 17 6 16 8 -9 8 -28 1 -28 2 -11 15 11 8 16 19 12 30 -4 10 -1 16 8 16
18 0 20 -21 3 -38 -9 -9 -8 -12 5 -12 9 0 17 6 18 13 3 46 -1 161 -6 178 -5
15 -4 19 4 15 6 -4 2 9 -9 29 -11 20 -16 34 -11 31 5 -4 12 2 14 11 3 10 6 2
7 -17 l2 -35 7 30 c7 30 -4 59 -19 50 -4 -3 -11 2 -14 11 -6 16 26 54 46 54 4
0 8 -46 7 -102 -1 -57 4 -114 10 -128 9 -20 10 2 7 97 -3 98 -1 123 10 127 8
3 14 19 14 38 0 18 4 39 9 47 6 10 5 19 -3 25 -23 19 -63 100 -58 119 3 15 10
17 47 12 40 -7 85 6 85 23 0 4 -18 18 -40 31 -22 14 -42 33 -45 42 -6 19 -55
55 -55 40 0 -5 5 -13 10 -16 6 -3 8 -17 6 -31 -4 -18 0 -24 14 -24 11 0 36
-11 56 -25 l37 -25 -52 2 c-54 2 -84 18 -35 18 19 0 25 3 18 10 -7 7 -19 8
-37 1 -24 -10 -25 -9 -24 27 1 28 -3 36 -13 34 -12 -3 -12 -1 -3 9 6 6 9 18 6
25 -4 10 3 14 23 14 22 0 25 3 16 12 -7 7 -12 35 -12 62 0 42 4 54 25 71 23
18 25 23 15 52 -9 24 -9 49 0 100 16 94 24 189 15 180 -5 -4 -9 -29 -10 -56
-2 -54 -17 -81 -46 -81 -21 0 -26 25 -7 36 7 5 8 2 3 -7 -7 -12 -6 -12 6 -1 8
7 14 16 15 20 0 4 3 14 7 22 3 8 8 32 11 53 3 27 2 36 -7 31 -8 -5 -8 -3 1 7
18 20 15 34 -5 18 -9 -8 -14 -9 -10 -2 4 7 -1 14 -13 18 -11 3 -20 11 -20 16
0 6 5 7 12 3 6 -4 8 -3 5 2 -3 6 20 11 55 12 54 2 166 38 154 49 -2 3 -19 -3
-38 -13 -23 -13 -57 -18 -114 -18 -69 -1 -85 2 -116 24 -42 28 -70 79 -62 112
4 13 7 32 8 43 2 28 15 47 28 39 7 -5 4 -12 -8 -22 -18 -13 -17 -14 14 -8 22
4 32 2 32 -7 0 -8 3 -8 9 2 7 10 10 10 16 1 10 -17 -15 -31 -36 -20 -12 7 -21
4 -33 -9 -19 -21 -21 -37 -3 -44 9 -4 8 -6 -2 -6 -18 -1 22 -38 51 -47 11 -3
17 -8 15 -11 -3 -2 -15 0 -26 7 -12 6 -21 8 -21 6 0 -6 55 -36 65 -36 3 0 3 4
0 10 -3 6 1 7 9 4 9 -3 13 -10 10 -15 -3 -5 4 -9 15 -9 12 0 21 6 21 13 0 7 7
4 15 -7 14 -19 16 -19 28 -3 6 10 28 18 47 20 19 1 43 10 52 20 10 9 32 17 49
17 34 0 113 56 102 73 -3 6 -1 7 4 4 12 -8 46 27 36 36 -3 4 -2 7 4 7 6 0 14
11 17 25 5 21 26 37 26 20 0 -25 -89 -151 -90 -128 0 4 -5 0 -11 -10 -5 -9 -7
-22 -4 -27 3 -6 -1 -10 -9 -10 -9 0 -16 -5 -16 -11 0 -17 34 -5 38 13 2 9 19
33 38 53 19 20 34 43 34 51 0 8 5 14 10 14 6 0 15 12 21 27 8 21 7 28 -6 36
-12 7 -13 12 -5 22 7 8 10 20 8 27 -3 7 -15 -9 -27 -37 -20 -47 -104 -139
-116 -127 -3 3 -5 0 -5 -7 0 -7 -9 -9 -27 -5 -26 6 -27 5 -9 -8 16 -12 16 -16
5 -23 -8 -5 -10 -4 -6 0 4 5 -12 14 -35 21 -24 7 -53 15 -65 19 -13 4 -23 3
-23 -2 0 -6 18 -15 40 -22 22 -7 38 -16 35 -21 -3 -5 -29 -16 -58 -25 -101
-30 -197 1 -213 68 -6 27 -5 28 14 16 18 -11 24 -10 41 5 12 11 20 30 19 45
-3 53 2 78 17 78 10 0 14 -6 10 -15 -3 -7 -7 -26 -10 -40 -2 -15 3 -3 13 26
14 45 20 52 43 52 45 0 80 60 59 100 -6 11 -15 18 -19 16 -14 -9 -8 29 8 48
15 18 15 19 -1 13 -11 -4 -18 1 -22 15 -4 18 -7 19 -20 8 -14 -11 -16 -8 -15
21 0 28 2 31 9 14 5 -11 9 -16 9 -11 1 5 9 2 18 -5 15 -12 16 -12 10 4 -3 9
-2 17 3 17 6 0 10 4 10 9 0 17 -106 17 -144 0z m24 -89 c0 -9 -10 -3 -24 15
-13 16 -22 34 -19 39 7 11 42 -34 43 -54z m-72 39 c-2 -6 6 -13 16 -15 21 -3
37 -24 29 -37 -3 -5 -18 4 -34 19 -15 15 -26 31 -23 36 7 12 14 10 12 -3z
m-25 -569 c-4 -44 -1 -67 10 -83 13 -21 13 -23 -2 -24 -9 -1 -17 6 -18 15 -1
9 -4 36 -6 59 -3 25 -1 45 5 49 7 4 6 9 -2 14 -13 8 -6 30 10 30 5 0 6 -27 3
-60z m71 19 c44 -20 50 -103 11 -137 -14 -12 -25 -28 -25 -36 0 -21 25 -37 46
-29 16 6 16 3 -4 -21 -24 -31 -27 -53 -12 -76 8 -11 9 -8 4 12 -4 20 0 33 16
50 20 20 21 20 13 3 -9 -20 -9 -40 1 -110 l6 -40 -14 40 c-8 22 -14 36 -15 31
-1 -5 -8 -3 -16 4 -17 14 -18 6 -5 -25 6 -13 9 -15 9 -5 1 13 2 13 11 0 5 -8
10 -22 10 -30 0 -13 -1 -13 -10 0 -8 12 -10 12 -16 -3 -10 -27 -19 -20 -21 19
-1 20 -11 46 -21 58 -11 11 -17 27 -14 35 2 8 1 11 -4 8 -5 -3 -10 14 -11 37
l-2 41 15 -40 c8 -22 13 -44 10 -50 -2 -6 4 -17 14 -23 16 -10 18 -8 17 11 -2
12 -9 33 -16 47 -18 32 -23 73 -9 81 7 5 4 19 -11 42 -23 38 -27 68 -11 98 12
22 20 23 54 8z m12 -456 c-3 -3 -8 2 -12 11 -6 15 -7 15 -19 -1 -19 -26 -27
-11 -9 16 l16 22 15 -21 c8 -12 12 -24 9 -27z m-24 -141 c-7 -2 -12 -8 -12
-13 0 -6 5 -7 10 -4 6 3 10 0 10 -9 0 -27 -12 -46 -29 -46 -13 0 -14 2 -2 9
11 7 9 10 -8 13 l-23 3 21 26 c11 15 17 29 13 33 -3 4 2 4 13 0 11 -5 14 -9 7
-12z m41 -177 l26 -45 -51 0 c-27 0 -48 3 -46 8 2 4 12 24 21 45 10 20 19 37
21 37 2 0 16 -20 29 -45z m-36 -95 c-2 -24 -12 -26 -21 -5 -3 8 -12 12 -21 9
-8 -3 -15 -1 -15 5 0 6 13 11 29 11 24 0 29 -4 28 -20z m36 0 c-4 -15 0 -20
13 -21 11 0 14 -3 6 -6 -16 -6 -42 15 -42 33 0 8 6 14 14 14 9 0 12 -7 9 -20z
m131 -522 c20 -28 20 -38 1 -38 -13 0 -35 36 -35 56 0 12 21 1 34 -18z m-239
-82 c0 -23 -4 -32 -12 -29 -14 6 -16 22 -7 47 10 26 19 18 19 -18z m30 -10
c-1 -20 2 -36 7 -36 5 0 6 -4 3 -10 -10 -16 -26 -11 -24 8 1 9 -2 26 -6 36 -6
13 -4 21 3 24 7 2 9 9 6 14 -4 6 -3 8 2 5 6 -3 9 -22 9 -41z m421 1 c1 -16 7
-33 15 -38 10 -6 3 -9 -22 -9 -20 0 -39 -3 -42 -7 -4 -4 -32 -5 -62 -4 -32 1
-55 -2 -55 -8 0 -5 6 -11 13 -14 6 -2 -1 -2 -18 1 -16 2 -35 8 -41 13 -6 5
-15 5 -19 1 -5 -4 -5 -2 -2 5 4 7 -5 15 -24 22 -17 6 -28 15 -24 21 4 7 16 4
33 -8 32 -22 72 -34 72 -21 0 5 11 9 25 9 15 0 31 10 42 26 19 30 48 44 83 41
20 -2 25 -8 26 -30z m533 -16 c11 -7 10 -11 -5 -19 -13 -7 -24 -6 -41 5 -27
18 -42 11 -23 -12 19 -22 4 -31 -26 -15 l-26 14 22 18 c23 19 76 24 99 9z
m-479 -58 c0 -17 -18 -26 -54 -28 -51 -2 -62 6 -36 25 26 20 90 22 90 3z
m-500 -23 c-25 -4 -49 -4 -54 1 -6 5 12 8 45 8 l54 -2 -45 -7z"/>
<path d="M2795 2240 c3 -5 -4 -6 -15 -3 -21 5 -28 -11 -10 -22 15 -9 12 -25
-6 -25 -8 0 -12 -5 -9 -10 4 -6 15 -8 25 -5 14 4 20 0 23 -17 4 -23 5 -23 12
-2 5 15 13 20 26 17 11 -3 19 0 19 7 0 6 -9 14 -20 17 -15 4 -17 9 -10 23 14
26 13 28 -15 28 -13 0 -22 -4 -20 -8z"/>
<path d="M2511 2231 c-1 -7 -7 -11 -16 -8 -18 8 -32 -13 -15 -23 9 -5 9 -9 1
-14 -18 -12 -12 -24 9 -19 11 3 20 0 20 -6 0 -6 5 -11 10 -11 6 0 10 7 10 15
0 9 6 12 15 9 8 -4 15 -1 15 5 0 6 -5 11 -11 11 -6 0 -8 9 -4 22 6 16 4 20 -8
15 -9 -3 -18 -1 -21 6 -3 8 -5 8 -5 -2z"/>
<path d="M1322 2221 c-11 -7 -11 -9 2 -14 9 -4 16 -18 16 -32 0 -28 26 -35 28
-7 1 19 -18 62 -27 62 -3 0 -12 -4 -19 -9z"/>
<path d="M365 2204 c-16 -16 -16 -18 4 -33 20 -15 20 -18 6 -38 -9 -12 -11
-24 -6 -28 5 -3 12 -1 16 5 4 6 11 7 17 4 6 -4 8 -2 5 3 -4 6 0 16 8 23 14 11
19 7 16 -12 0 -5 2 -7 7 -7 20 3 23 -3 11 -18 -12 -15 -12 -16 4 -10 10 4 23
7 29 7 7 0 7 5 -1 13 -6 8 -7 18 -3 22 4 5 -1 5 -10 2 -10 -3 -20 -2 -23 3 -3
4 0 10 7 12 9 3 8 9 -5 22 -17 17 -37 14 -37 -5 0 -6 4 -8 9 -4 5 3 13 0 17
-7 4 -7 4 -10 -1 -6 -4 4 -15 2 -24 -4 -9 -7 -13 -9 -9 -4 4 5 -2 16 -14 26
-15 12 -18 19 -9 24 6 4 10 3 9 -2 -2 -6 2 -10 7 -11 14 -1 13 31 -1 36 -7 2
-19 -4 -29 -13z"/>
<path d="M2572 2167 c-30 -31 -28 -41 3 -21 53 35 106 -27 71 -81 -19 -29 -60
-33 -75 -8 -5 10 -12 15 -16 11 -13 -13 15 -45 54 -63 35 -15 45 -16 71 -5 51
21 93 90 55 90 -8 0 -16 -9 -16 -20 -2 -32 -4 -38 -11 -46 -4 -3 -6 3 -3 14 2
12 -1 21 -7 19 -6 -1 -13 4 -16 12 -3 8 0 11 7 7 7 -5 9 -1 5 8 -3 9 -10 13
-15 10 -5 -3 -9 4 -9 16 0 11 -12 32 -27 46 l-27 25 27 -10 c15 -6 27 -8 27
-4 0 3 9 -2 20 -12 11 -10 20 -26 20 -37 0 -11 7 -18 20 -18 11 0 20 5 20 11
0 66 -130 107 -178 56z m113 -136 c-1 -10 -14 -16 -36 -18 -30 -2 -31 -1 -11
8 13 5 29 6 35 2 7 -3 5 2 -4 13 -9 10 -14 25 -12 32 7 17 32 -16 28 -37z"/>
<path d="M1415 2131 c-11 -5 -24 -6 -30 -3 -7 3 -7 2 0 -5 6 -6 27 -8 49 -5
26 3 34 7 25 13 -16 10 -18 10 -44 0z"/>
<path d="M1480 2115 c0 -10 5 -13 12 -9 18 12 59 11 72 -1 15 -14 57 -14 53
-1 -4 11 -10 13 -89 22 -40 5 -48 3 -48 -11z"/>
<path d="M413 2094 c-3 -8 -12 -13 -21 -9 -11 4 -12 2 -4 -8 14 -16 63 -20 93
-7 23 10 23 10 -3 5 -34 -7 -58 3 -51 21 3 8 2 14 -1 14 -4 0 -9 -7 -13 -16z"/>
<path d="M1337 2091 c-21 -3 -38 -9 -37 -13 0 -11 4 -11 50 -3 22 4 42 11 46
16 6 10 0 10 -59 0z"/>
<path d="M2304 2076 c-8 -32 20 -125 47 -160 44 -56 122 -75 138 -32 9 22 40
43 42 28 0 -4 2 -16 3 -28 1 -12 -3 -21 -11 -21 -8 0 -12 6 -9 13 3 8 0 16 -6
20 -8 5 -9 -3 -5 -24 4 -20 2 -32 -4 -32 -6 0 -7 5 -3 12 5 8 2 9 -10 5 -10
-4 -22 -7 -27 -7 -5 0 -9 -4 -9 -9 0 -5 16 -9 35 -9 48 0 82 40 61 72 -18 28
-58 27 -71 -1 -32 -74 -153 42 -157 152 -3 51 -5 55 -14 21z"/>
<path d="M2456 2085 c4 -9 1 -15 -7 -15 -8 0 -15 -11 -15 -26 -2 -18 2 -24 12
-20 8 3 14 -1 14 -9 0 -8 5 -15 10 -15 6 0 10 7 10 16 0 11 6 14 20 9 11 -3
20 -2 20 3 0 6 -6 12 -12 15 -10 3 -9 8 2 22 14 16 13 17 -6 11 -15 -4 -24 -2
-28 9 -3 8 -10 15 -15 15 -6 0 -8 -7 -5 -15z"/>
<path d="M2810 2094 c0 -3 5 -14 11 -25 9 -18 8 -19 -9 -10 -19 10 -32 6 -32
-11 0 -4 9 -8 20 -8 13 0 18 -5 14 -15 -4 -8 -1 -15 5 -15 6 0 11 5 11 11 0 8
5 7 15 -1 19 -16 32 -5 16 14 -9 11 -8 15 4 20 9 3 14 10 10 15 -3 6 -12 8
-19 5 -7 -3 -16 2 -19 10 -6 15 -27 23 -27 10z"/>
<path d="M1403 2076 c-10 -5 -25 -11 -33 -13 -64 -11 -80 -16 -80 -24 0 -12
21 -22 49 -25 14 -2 31 -10 37 -19 6 -8 32 -22 57 -31 41 -14 48 -14 77 1 18
9 44 19 58 21 15 3 29 7 31 10 8 8 10 34 2 29 -5 -2 -32 4 -62 15 -58 21 -94
26 -84 11 3 -5 1 -12 -5 -16 -5 -3 -10 -1 -10 4 0 6 -7 11 -15 11 -8 0 -15 -4
-15 -9 0 -12 -43 -19 -66 -10 -15 6 -12 8 14 8 17 1 32 5 32 10 0 5 14 14 30
20 17 5 30 12 30 14 0 7 -29 3 -47 -7z m54 -90 c14 -6 14 -4 2 11 -13 16 -12
17 3 5 20 -16 38 -8 39 16 0 14 2 13 9 -3 7 -17 9 -17 9 -3 1 15 5 16 26 6 29
-13 28 -17 -10 -24 -16 -3 -36 -9 -46 -14 -26 -14 -43 -12 -67 8 -16 14 -18
22 -9 37 10 18 11 18 19 -7 5 -14 16 -29 25 -32z"/>
<path d="M1465 2080 c6 -10 60 -22 102 -23 18 0 30 -5 26 -9 -3 -5 3 -8 13 -6
12 2 18 -2 16 -10 -1 -8 2 -11 8 -7 5 3 10 14 10 24 0 16 -8 18 -44 17 -25 -1
-42 3 -38 8 3 5 -2 7 -10 3 -9 -3 -19 -3 -23 1 -9 9 -65 11 -60 2z"/>
<path d="M411 2041 c-12 -8 -9 -12 13 -22 24 -11 30 -11 40 2 6 9 18 18 26 22
8 3 -3 6 -25 6 -22 0 -47 -3 -54 -8z"/>
<path d="M376 2012 c-4 -11 -5 -26 -4 -33 2 -7 -3 -14 -9 -15 -7 -1 -17 -2
-23 -3 -5 0 -10 -10 -10 -21 0 -11 5 -20 10 -20 6 0 10 5 10 11 0 5 5 7 10 4
6 -3 10 1 10 9 0 18 25 22 35 6 3 -5 15 -15 27 -21 12 -7 18 -7 14 -1 -3 6 -2
12 3 14 5 1 3 9 -5 16 -8 7 -14 8 -14 2 0 -5 -4 -10 -9 -10 -6 0 -9 9 -8 20 1
14 6 19 17 14 33 -14 59 -13 53 3 -4 11 -8 12 -13 3 -6 -9 -16 -8 -41 6 -19
11 -37 23 -40 28 -4 5 -10 0 -13 -12z"/>
<path d="M806 1993 c-12 -12 -6 -25 8 -20 8 3 16 1 18 -4 2 -7 13 -7 31 0 28
11 29 31 1 31 -8 0 -12 -4 -9 -10 8 -13 -1 -13 -24 0 -10 5 -21 6 -25 3z"/>
<path d="M1655 1991 c-3 -6 4 -15 15 -21 11 -6 20 -16 20 -22 0 -7 -5 -6 -15
2 -10 9 -15 9 -15 1 0 -6 3 -11 8 -12 4 0 15 -2 24 -4 29 -5 31 13 3 31 -13 9
-22 20 -19 25 3 5 1 9 -5 9 -5 0 -12 -4 -16 -9z"/>
<path d="M2570 1987 c0 -9 -8 -17 -17 -17 -15 0 -15 -2 -4 -9 8 -5 11 -16 7
-26 -4 -12 -2 -16 8 -12 7 3 19 0 25 -6 8 -8 11 -8 11 1 0 7 8 12 17 12 13 0
14 3 6 11 -6 6 -9 18 -6 25 3 8 0 14 -6 14 -7 0 -14 -7 -17 -15 -4 -8 -11 -15
-16 -15 -6 0 -5 7 2 15 10 12 10 19 2 27 -9 9 -12 8 -12 -5z"/>
<path d="M2720 1997 c0 -14 34 -67 42 -67 6 0 5 7 -3 17 -11 13 -11 17 -1 20
6 3 12 9 12 14 0 4 -7 6 -15 3 -8 -4 -15 -1 -15 5 0 6 -4 11 -10 11 -5 0 -10
-2 -10 -3z"/>
<path d="M127 1973 c3 -7 15 -18 27 -25 17 -8 19 -8 9 3 -9 8 -9 16 -3 25 8 8
4 12 -14 12 -17 0 -23 -5 -19 -15z"/>
<path d="M2698 1978 c9 -9 7 -15 -6 -25 -16 -14 -16 -14 1 -9 11 4 17 0 17
-11 0 -12 3 -14 10 -7 13 13 -7 64 -24 64 -6 0 -6 -4 2 -12z"/>
<path d="M290 1931 c0 -17 -4 -33 -10 -36 -18 -11 -11 -31 11 -32 19 -2 21 3
17 38 -2 21 0 39 4 39 5 0 8 5 8 10 0 6 -7 10 -15 10 -10 0 -15 -10 -15 -29z"/>
<path d="M1188 1947 c-7 -7 -32 -21 -56 -31 -23 -11 -41 -21 -39 -23 3 -2 25
6 51 17 56 24 73 26 57 7 -6 -8 -8 -17 -4 -20 3 -4 -2 -7 -13 -7 -10 0 -27 -7
-36 -14 -15 -11 -13 -13 20 -11 24 1 36 6 34 14 -1 7 3 11 10 8 7 -2 32 7 55
20 26 15 44 20 48 13 3 -5 -1 -13 -9 -16 -9 -3 -16 -11 -16 -17 0 -7 4 -7 12
1 16 16 31 15 22 0 -4 -7 2 -4 14 6 28 24 28 36 0 28 -16 -4 -19 -2 -13 8 5 9
4 11 -3 6 -7 -4 -12 -3 -12 3 0 16 -29 6 -50 -17 -13 -14 -26 -19 -38 -14 -15
6 -14 7 6 10 12 2 22 7 22 12 0 5 -7 7 -15 4 -21 -8 -41 6 -24 17 9 6 10 9 2
9 -6 0 -18 -6 -25 -13z"/>
<path d="M1490 1898 c-1 -21 -2 -22 -14 -5 -13 16 -14 16 -30 -7 -22 -35 -20
-41 8 -23 22 15 24 14 34 -6 11 -22 11 -22 9 3 -1 16 4 25 16 28 10 2 16 -2
15 -8 -2 -7 3 -15 10 -17 29 -11 8 26 -25 45 -21 11 -23 10 -23 -10z"/>
<path d="M1576 1897 c5 -15 3 -18 -7 -12 -8 5 0 -5 16 -21 17 -16 34 -27 38
-26 5 1 11 -7 14 -18 3 -11 12 -20 20 -20 13 0 13 3 -1 25 -9 13 -16 31 -16
40 0 8 -5 15 -11 15 -6 0 -9 -7 -5 -15 3 -8 1 -15 -3 -15 -10 0 -32 56 -25 62
2 3 -3 5 -11 5 -11 0 -13 -6 -9 -20z"/>
<path d="M1641 1900 c7 -14 12 -30 11 -37 -1 -6 1 -14 6 -17 5 -3 9 0 9 7 0 7
3 19 5 27 3 8 3 11 0 6 -3 -5 -13 2 -24 15 l-19 24 12 -25z"/>
<path d="M1690 1904 c0 -5 13 -21 29 -35 25 -22 29 -23 28 -8 -1 10 -3 16 -6
13 -2 -2 -15 6 -28 18 -13 12 -23 17 -23 12z"/>
<path d="M1362 1878 c-18 -18 -15 -33 3 -18 13 11 14 10 8 -6 -6 -16 -5 -17 9
-6 14 11 17 10 21 -5 4 -14 5 -15 6 -2 2 25 -32 52 -47 37z"/>
<path d="M1312 1849 c-17 -26 -15 -34 5 -18 15 13 16 12 11 -8 -7 -27 -2 -30
11 -5 6 11 5 23 -3 34 -11 15 -13 15 -24 -3z"/>
<path d="M491 1729 c-1 -36 22 -55 40 -33 11 14 10 15 -6 12 -13 -2 -21 5 -26
22 l-7 25 -1 -26z"/>
<path d="M270 1652 c0 -8 -5 -10 -12 -6 -8 4 -10 3 -5 -2 5 -5 14 -9 20 -9 7
0 11 -8 11 -18 -1 -9 2 -15 6 -12 16 10 22 -39 15 -128 -3 -51 -10 -97 -16
-103 -5 -7 -3 -18 6 -30 13 -18 15 -18 31 -2 17 17 17 19 1 53 -10 20 -14 41
-10 48 4 6 8 44 9 83 2 67 0 75 -27 106 -15 18 -28 27 -29 20z"/>
<path d="M250 1222 c0 -5 4 -12 9 -17 5 -6 12 -21 15 -35 7 -24 6 -24 -8 -6
-20 25 -20 20 -1 -35 16 -45 29 -59 55 -59 12 1 12 3 -2 14 -10 7 -18 23 -18
35 0 34 -23 100 -37 106 -7 2 -13 1 -13 -3z"/>
<path d="M254 415 c5 -23 3 -35 -4 -35 -22 0 -5 -34 20 -41 21 -6 20 -7 -12
-8 -21 -1 -38 -4 -38 -9 0 -4 20 -6 45 -4 25 2 45 7 45 11 -1 16 -19 33 -29
27 -7 -5 -11 9 -11 43 0 31 -4 51 -11 51 -7 0 -9 -12 -5 -35z"/>
<path d="M1550 363 c0 -5 5 -15 10 -23 7 -11 12 -12 21 -3 6 6 8 16 5 22 -8
12 -36 15 -36 4z"/>
<path d="M1622 340 c3 -34 4 -35 24 -16 16 17 9 46 -12 46 -10 0 -14 -10 -12
-30z"/>
<path d="M1408 342 c-27 -5 -22 -22 14 -50 16 -13 17 -11 13 18 -4 37 -5 38
-27 32z"/>
<path d="M1296 324 c-8 -20 -7 -21 19 -26 14 -2 20 3 20 17 0 25 -30 32 -39 9z"/>
<path d="M2211 313 l-34 -17 26 -9 c24 -8 25 -9 10 -27 -9 -10 -20 -17 -25
-14 -5 3 -17 3 -26 -1 -28 -12 -79 -17 -62 -5 8 5 11 12 7 16 -4 4 -13 2 -19
-4 -14 -14 -32 -16 -24 -4 3 5 -9 6 -27 4 -29 -5 -31 -3 -18 12 16 19 68 21
90 3 13 -11 22 -11 51 0 l35 12 -35 0 c-19 -1 -50 4 -68 10 -41 12 -102 -12
-102 -41 0 -18 21 -23 78 -20 12 0 22 -2 22 -6 0 -4 20 -8 45 -9 25 0 43 3 40
7 -3 5 0 12 6 16 8 4 9 3 5 -4 -13 -22 10 -12 34 13 13 14 33 25 44 24 20 0
20 -1 -1 -9 -50 -20 -4 -63 61 -57 17 1 31 -4 33 -11 5 -14 -40 -10 -102 9
-19 5 -43 5 -64 -1 -19 -5 -38 -7 -42 -4 -5 2 -32 -2 -61 -10 -29 -8 -68 -14
-87 -13 -20 1 -36 -3 -38 -10 -3 -9 9 -13 39 -14 24 -1 35 -3 26 -6 -10 -2
-18 -10 -18 -16 0 -8 -3 -8 -11 0 -7 7 -24 9 -39 6 -41 -8 -139 24 -169 55
-41 43 -125 71 -119 40 7 -29 -29 -14 -55 22 -31 46 -65 65 -99 56 -30 -8 -91
-84 -83 -105 3 -9 -4 -5 -15 8 -26 30 -64 22 -85 -19 -8 -16 -23 -34 -33 -39
-20 -10 -110 -26 -132 -23 -13 3 -13 2 0 -7 13 -9 13 -11 -2 -11 -10 0 -18 -4
-18 -10 0 -6 23 -9 53 -9 46 1 48 2 17 8 -28 5 -31 8 -17 14 10 4 31 7 45 7
30 0 92 34 92 50 0 6 5 8 10 5 6 -3 15 6 21 22 8 21 12 24 19 13 5 -8 5 -21
-1 -32 -7 -13 -6 -18 3 -19 16 -1 -82 -49 -99 -49 -7 0 -13 -3 -13 -7 0 -5 27
-8 60 -8 46 0 62 -4 73 -19 14 -19 33 -19 116 1 17 4 22 2 17 -6 -5 -8 0 -8
18 -1 17 6 26 6 26 0 0 -16 21 -12 75 15 l50 24 -37 -1 c-21 -1 -38 -5 -38
-10 0 -5 -4 -6 -10 -3 -5 3 -10 3 -10 -2 0 -4 -13 -8 -30 -8 -16 0 -30 3 -30
8 0 4 9 7 19 7 23 0 91 38 91 50 0 14 -18 21 -22 9 -2 -5 -17 1 -33 15 l-30
26 35 -1 c19 0 29 -3 23 -6 -7 -2 -13 -9 -13 -15 0 -6 7 -7 16 -4 9 3 29 -3
45 -15 40 -28 49 -17 11 11 -30 22 -33 44 -7 54 7 2 16 -2 19 -10 4 -10 2 -12
-6 -8 -7 5 -8 3 -4 -5 5 -7 14 -10 22 -7 8 3 11 0 8 -8 -3 -7 2 -16 11 -20 9
-3 13 -11 9 -17 -4 -8 -3 -9 4 -5 9 5 9 13 2 26 -18 33 -11 34 20 2 17 -18 30
-29 30 -27 0 3 10 0 23 -7 12 -7 30 -11 41 -9 11 2 16 -2 11 -9 -9 -14 -63 -4
-86 16 -9 8 -18 11 -22 8 -3 -3 -27 -8 -54 -11 -69 -7 -66 -13 5 -13 39 0 62
-4 62 -11 0 -7 -13 -9 -37 -5 -31 5 -33 4 -15 -4 13 -5 43 -11 68 -12 24 0 44
-4 44 -8 0 -3 25 -3 55 0 30 3 55 2 55 -2 0 -12 45 -9 58 4 7 7 12 9 12 4 0
-4 18 3 40 15 21 12 36 27 33 32 -3 6 -1 7 5 3 7 -4 29 -2 49 3 l38 11 -29
-23 c-37 -30 -25 -62 14 -37 12 8 13 12 2 19 -11 7 -10 9 3 14 10 4 14 3 10
-4 -5 -7 5 -8 28 -4 35 7 42 3 70 -38 9 -13 28 -20 62 -22 28 -2 84 -8 125
-14 138 -20 146 -21 130 -11 -12 8 -10 10 8 10 15 0 21 -4 16 -11 -5 -9 35
-10 152 -5 210 9 198 6 202 48 2 29 -2 38 -23 52 -21 14 -25 23 -21 42 4 14 2
24 -4 24 -6 0 -8 10 -4 25 7 27 -12 35 -34 13 -21 -21 -24 -1 -6 37 20 44 11
58 -31 46 l-30 -9 29 -1 c16 -1 27 -4 23 -7 -3 -3 -40 -6 -82 -5 -50 1 -74 -2
-70 -9 4 -6 3 -50 0 -99 l-7 -88 -44 -21 c-33 -16 -42 -18 -37 -7 3 8 9 15 14
15 5 0 9 7 9 16 0 11 -5 14 -16 10 -12 -5 -15 -2 -10 10 3 8 6 18 6 20 0 2 11
4 25 4 25 0 35 23 15 35 -5 3 -10 2 -10 -4 0 -14 -55 -6 -56 8 -1 6 -2 15 -3
20 -2 13 -96 51 -126 51 -40 0 -96 -27 -102 -50 -6 -24 -23 -17 -23 10 0 11
11 27 24 35 22 15 52 73 42 82 -10 10 -75 -28 -81 -47 -7 -21 -8 -21 -37 14
-33 40 -55 44 -107 19z m83 -9 c9 -3 13 -10 10 -15 -6 -11 -45 -12 -71 -2 -16
6 -15 8 7 14 35 10 36 10 54 3z m116 -7 c0 -7 -9 -18 -19 -24 -15 -9 -19 -9
-17 0 4 31 36 52 36 24z m-890 -27 c-28 -9 -20 -13 25 -11 17 1 37 -3 45 -9
11 -7 0 -9 -40 -9 -30 1 -59 3 -63 6 -14 8 15 33 37 32 19 -1 18 -2 -4 -9z
m820 -31 c9 -16 5 -17 -30 -15 -42 3 -58 11 -46 23 4 4 21 2 39 -5 32 -12 32
-12 9 6 -13 10 -20 21 -16 25 8 8 31 -9 44 -34z m534 29 c-7 -12 -114 -10
-114 2 0 5 26 9 59 8 33 -1 58 -5 55 -10z m-4 -36 c0 -10 -7 -12 -25 -8 -14 4
-25 2 -25 -4 0 -5 15 -10 33 -11 l32 -1 -30 -13 c-16 -8 -40 -11 -53 -8 -17 4
-21 2 -16 -10 3 -8 15 -17 26 -20 14 -4 19 -11 14 -23 -5 -13 -2 -15 14 -11
11 3 18 2 15 -3 -3 -4 3 -11 12 -14 10 -4 14 -4 10 0 -3 4 3 15 14 25 15 13
20 26 17 44 -3 14 -2 28 2 30 12 8 18 -58 7 -76 -12 -19 -78 -65 -89 -61 -4 1
-8 -2 -8 -7 0 -5 -7 -11 -15 -15 -9 -3 -15 0 -15 9 0 8 11 17 24 21 14 3 27
12 30 21 4 11 1 13 -14 8 -15 -5 -21 0 -26 19 -6 26 -23 36 -25 16 -1 -5 -2
-16 -3 -22 -1 -7 2 -16 6 -19 18 -12 -41 -51 -84 -55 -45 -4 -43 0 5 10 16 4
25 11 21 17 -3 6 2 9 12 7 15 -2 19 3 19 24 0 15 6 33 13 39 14 15 16 33 3 24
-5 -3 -12 -1 -16 5 -3 5 -1 10 5 10 7 0 10 7 6 15 -4 10 1 15 15 15 11 0 18 4
14 10 -3 5 -12 7 -20 3 -9 -3 -15 1 -15 8 0 10 16 14 55 14 40 1 55 -3 55 -13z
m-1310 -12 c0 -6 -13 -10 -29 -10 -35 0 -49 -16 -22 -25 13 -4 17 -12 14 -25
-7 -26 -23 -26 -18 -1 2 11 -3 22 -12 25 -11 4 -13 2 -10 -9 4 -8 2 -17 -3
-20 -6 -4 -10 1 -10 9 0 9 -5 16 -11 16 -5 0 -7 -4 -4 -10 3 -5 -1 -10 -9 -10
-13 0 -14 3 -4 19 6 10 18 17 25 14 9 -3 16 2 19 14 4 15 15 20 40 21 19 1 34
-3 34 -8z m900 0 c-42 -9 -34 -11 50 -12 60 -1 67 -4 98 -36 19 -18 31 -36 28
-39 -3 -3 -17 9 -32 26 -14 18 -29 30 -32 27 -3 -3 1 -12 8 -21 7 -9 10 -19 6
-22 -4 -4 -11 -1 -16 7 -6 8 -10 11 -10 6 0 -5 -8 -2 -19 8 -24 22 -75 36 -92
25 -10 -6 -2 -9 24 -9 39 0 77 -27 77 -55 0 -18 5 -18 31 -5 29 16 24 -6 -6
-26 -18 -11 -37 -15 -62 -11 -40 7 -67 26 -46 34 15 5 5 34 -18 50 -17 13 -31
48 -21 57 3 3 19 5 36 5 l31 -2 -35 -7z m-889 -34 c-10 -12 -7 -15 16 -19 27
-4 27 -4 -4 -6 -27 -1 -33 3 -33 19 0 12 7 20 16 20 13 0 14 -3 5 -14z m702
-5 c16 -6 29 -23 37 -45 6 -20 16 -36 21 -36 6 0 7 -5 4 -11 -5 -7 -15 -4 -29
9 -11 11 -30 24 -41 31 -17 10 -16 10 10 5 25 -6 28 -4 17 7 -9 10 -42 14
-117 14 -57 0 -102 1 -100 3 2 2 25 10 52 17 58 16 113 18 146 6z m107 -44 c0
-82 0 -80 -13 -68 -8 6 -18 7 -22 3 -5 -4 -4 0 1 8 13 22 12 33 -4 53 -8 9
-11 17 -7 17 5 0 18 -8 29 -17 21 -18 21 -18 3 4 -11 12 -16 27 -12 33 11 17
25 -2 25 -33z m474 31 c-5 -7 -3 -8 7 -2 19 12 39 14 39 4 0 -21 -49 -33 -62
-15 -12 16 -9 25 8 25 9 0 12 -5 8 -12z m-1424 -33 c11 -13 10 -14 -6 -9 -15
6 -17 4 -7 -6 6 -7 24 -13 40 -13 15 0 22 -2 16 -4 -7 -3 -13 -11 -13 -19 0
-17 -26 -19 -36 -2 -5 7 -3 8 6 3 9 -5 11 -4 6 3 -4 7 -14 12 -22 12 -8 0 -12
5 -9 10 3 6 -3 10 -15 10 -12 0 -19 4 -15 10 3 5 13 6 22 3 11 -4 14 -3 9 5
-11 17 9 15 24 -3z m175 -8 c-16 -5 -37 -15 -45 -22 -21 -17 -52 -15 -46 2 3
8 2 12 -3 8 -5 -3 -20 -1 -33 4 -28 12 -13 14 61 11 32 -1 51 2 48 8 -4 5 5 7
21 4 l27 -5 -30 -10z"/>
<path d="M2727 324 c-15 -15 -6 -24 23 -24 22 0 28 4 24 15 -4 8 -10 15 -16
15 -5 0 -6 -4 -3 -10 3 -5 2 -10 -4 -10 -5 0 -11 5 -13 11 -2 5 -7 7 -11 3z"/>
<path d="M1218 314 c-13 -13 6 -44 26 -44 32 0 39 11 19 32 -16 18 -35 23 -45
12z"/>
<path d="M1684 295 c-4 -14 -3 -29 0 -33 9 -8 26 18 26 41 0 26 -19 20 -26 -8z"/>
<path d="M2686 271 c6 -26 3 -32 -20 -41 -14 -5 -26 -13 -27 -17 0 -5 -2 -16
-4 -26 -3 -17 -1 -17 31 3 20 11 33 16 29 11 -3 -5 -1 -12 5 -16 17 -10 12 91
-5 105 -13 11 -14 8 -9 -19z"/>
<path d="M1328 273 c-26 -6 -22 -23 5 -23 18 0 19 -2 7 -10 -13 -8 -13 -10 1
-10 21 0 43 26 34 40 -6 10 -17 11 -47 3z"/>
<path d="M1075 204 c-16 -24 -21 -26 -65 -20 -33 4 -51 3 -56 -5 -5 -9 -2 -10
9 -6 9 3 24 -1 33 -11 13 -12 19 -13 22 -4 2 6 16 12 32 12 17 0 34 9 44 23
13 16 16 17 12 4 -3 -10 -2 -16 3 -12 5 3 11 0 13 -7 3 -9 6 -9 12 0 4 7 2 12
-3 12 -6 0 -11 9 -11 20 0 28 -25 25 -45 -6z"/>
</g>
</svg>
